<svg xmlns="http://www.w3.org/2000/svg" xmlns:xlink="http://www.w3.org/1999/xlink" width="2118.89" height="2118.89" version="1.2" viewBox="0 0 1589.16 1589.16"><defs><symbol id="a" overflow="visible"><path d="m-45.47-74 3.6-7.13c2.15-4.28 2.03-8.07-.38-11.39a10.55 10.55 0 0 0-3.9-3.37l-2.8-1.4c-4.46-2.26-8.46-1.59-12.02 2a12.6 12.6 0 0 0-2.39 3.34l-3.6 7.12zm21.08 10.63L0-51.08l5.07-10.05c2.15-4.29 1.98-8.1-.52-11.47a11.35 11.35 0 0 0-3.83-3.14l-5.71-2.9c-4.57-2.28-8.57-1.62-12.04 1.99-.92.94-1.7 2.01-2.3 3.22zm-8.02-68.46c9.07 4.69 14 13.07 14.8 25.14 10.23-7.79 20.27-9.78 30.14-5.98.97.37 1.87.78 2.7 1.2 12.29 6.19 18.54 16.34 18.79 30.44.1 8.81-2.23 17.96-7.02 27.45L6.83-13.53c-1.6 3.15-4.1 4.64-7.5 4.45a9.88 9.88 0 0 1-3.2-.94l-93.77-47.25c-3.16-1.59-4.65-4.09-4.45-7.5a9.5 9.5 0 0 1 .92-3.2l18.76-37.25c7.37-14.6 16.51-23.94 27.43-28.01a27.52 27.52 0 0 1 22.57 1.4zm0 0"/></symbol><symbol id="b" overflow="visible"><path d="m4.86-73.08-29.55-13.5 21.17 24.6zm21.34 9.85L11.8-44.16l6.14 7.2c2.95 3.67 3.33 7.48 1.14 11.43-.3.56-.6 1.05-.9 1.47L4.13-5.48C2.83-3.74.88-3.07-1.72-3.45A6.64 6.64 0 0 1-5.7-5.67l-64.7-88.58c-2.95-3.68-3.33-7.5-1.13-11.45.3-.57.6-1.05.9-1.47l13.57-17.95c3-4 6.93-5.2 11.75-3.65.25.2.49.3.72.35L58.3-90.47c.63.21 1.1.44 1.44.69 2.07 1.57 2.83 3.78 2.27 6.6a5.05 5.05 0 0 1-.82 2.13L47.27-62.59c-3.02 3.99-6.86 5.26-11.52 3.82-.4-.16-.75-.3-1.06-.4zm0 0"/></symbol><symbol id="c" overflow="visible"><path d="m-25.9-140.44 16.56-15.22c2.61-2.4 5.47-2.9 8.57-1.51a9.37 9.37 0 0 1 2.7 2l71.04 77.31c2.4 2.62 2.9 5.48 1.51 8.6a9.04 9.04 0 0 1-2 2.67L55.92-51.38c-2.53 2.33-5.35 2.8-8.47 1.41-.15 0-.25-.04-.3-.12l-.13.1-50.43-21.15L28.2-36.75c2.4 2.62 2.9 5.48 1.52 8.6a8.55 8.55 0 0 1-1.99 2.67L11.16-10.25c-2.6 2.4-5.47 2.9-8.58 1.52a9.6 9.6 0 0 1-2.67-2l-71.05-77.32c-2.4-2.6-2.9-5.46-1.52-8.58a9.56 9.56 0 0 1 1.99-2.68l16.58-15.24a8.2 8.2 0 0 1 7.06-2.01c.21.1.5.26.86.48.8.26 1.37.51 1.73.74l49.88 20.8-31.83-34.63c-2.4-2.6-2.9-5.46-1.52-8.58a9.7 9.7 0 0 1 2-2.69zm0 0"/></symbol><symbol id="d" overflow="visible"><path d="m21.4-83.5 28.33-17.77c3.1-1.93 6.07-1.9 8.94.11a8.5 8.5 0 0 1 2.19 2.33l6.98 11.11c7.47 11.92 7.78 24.39.94 37.4-4.8 9.04-12.09 16.62-21.89 22.76-12.53 7.86-24.89 11-37.06 9.4-11.2-1.58-19.88-7.2-26.05-16.86L-39.8-72.6c-7.47-11.91-7.87-24.32-1.22-37.22 4.79-9.03 12.12-16.64 22-22.84 12.9-8.07 25.32-11.5 37.29-10.28 10.59 1.22 18.67 6.17 24.25 14.86l2 3.18c1.87 3 1.75 5.96-.35 8.88a8.23 8.23 0 0 1-2.31 2.19l-18.94 11.87c-3 1.89-5.9 1.86-8.72-.08a9.63 9.63 0 0 1-2.26-2.43l-3.66-5.83c-2.54-4.06-6.2-5.58-10.95-4.55-1.52.32-2.9.87-4.14 1.64-4.15 2.6-6.02 6-5.61 10.17.2 1.71.76 3.28 1.64 4.7L19.59-49.9c2.55 4.06 6.21 5.57 10.99 4.55a12.6 12.6 0 0 0 4.1-1.67c4.16-2.6 6.04-5.98 5.63-10.16a11.5 11.5 0 0 0-1.65-4.67l-2.32-3.72-2.64 1.66c-3 1.88-5.96 1.78-8.87-.33a8.41 8.41 0 0 1-2.2-2.31l-3.74-5.96c-1.87-3-1.85-5.9.08-8.71a8.95 8.95 0 0 1 2.44-2.27zm0 0"/></symbol><symbol id="e" overflow="visible"><path d="m25.02-59.7 8.64 21.28 42.86-17.4c3.28-1.31 6.13-.78 8.56 1.6.82.9 1.42 1.84 1.81 2.8l2.64 6.51c1.33 3.28.8 6.14-1.58 8.57a8.68 8.68 0 0 1-2.8 1.8L14.04-5.7c-3.28 1.33-6.14.8-8.58-1.58a9.75 9.75 0 0 1-1.81-2.81l-39.46-97.3c-1.33-3.28-.8-6.14 1.58-8.58a9.83 9.83 0 0 1 2.81-1.81l69.64-28.24c3.29-1.33 6.15-.8 8.58 1.58.81.9 1.42 1.85 1.81 2.81l2.65 6.52c1.33 3.28.8 6.14-1.58 8.58a9.75 9.75 0 0 1-2.81 1.81l-41.41 16.8L16.39-81l35.33-14.33c3.28-1.33 6.13-.8 8.56 1.58a9.2 9.2 0 0 1 1.81 2.81l2.66 6.52c1.32 3.28.79 6.13-1.6 8.56a8.92 8.92 0 0 1-2.8 1.83zm0 0"/></symbol><symbol id="f" overflow="visible"><path d="m31.5-72.33 11.02-2.3c5-1.05 7.91-3.67 8.75-7.89.32-1.45.32-2.95.01-4.48l-2.62-12.55c-1-4.79-3.92-7.53-8.74-8.23a14.42 14.42 0 0 0-4.26.26l-11.02 2.3zm77 45.4c0 2.55-1.24 4.24-3.72 5.07l-23.56 4.9c-4.39.92-8.54-.34-12.45-3.77-.25-.16-.77-.63-1.57-1.43L41.6-50.8l-5.37 1.12 6.8 32.58c.72 3.47-.3 6.18-3.08 8.14a8.94 8.94 0 0 1-3.1 1.28l-22 4.6c-3.47.71-6.2-.32-8.16-3.1A9.22 9.22 0 0 1 5.4-9.27l-21.46-102.8c-.72-3.45.32-6.16 3.1-8.13a9.6 9.6 0 0 1 3.1-1.28L30.96-130c14.48-3.03 27.16-1.69 38.03 4.03 9.96 5.38 16.16 13.66 18.6 24.84 2.85 13.67-1 25.33-11.54 34.97l-1.89 1.7 32.19 34.13a6.32 6.32 0 0 1 2.14 3.4zm0 0"/></symbol><symbol id="g" overflow="visible"><path d="M63.34-32.4c-.12-4.57-4.41-9.09-12.87-13.54a193.7 193.7 0 0 0-10.63-5.34c-12.66-5.9-21.4-10.96-26.2-15.2C6.6-72.75 2.9-79.9 2.58-87.92c-.3-10.82 4.86-19.72 15.5-26.69 8.9-5.87 19.24-8.97 31.01-9.3 14.78-.4 26.8 2.81 36.07 9.64 7.86 5.83 11.97 13.32 12.32 22.47l.02.47c.1 3.54-1.39 6.03-4.47 7.47a9.68 9.68 0 0 1-3.26.72l-22.5.62c-3.55.1-6.04-1.4-7.47-4.48a9.64 9.64 0 0 1-.72-3.27l-.1-3.75c-.1-3.53-2.2-5.77-6.26-6.68a16.12 16.12 0 0 0-2.99-.24c-3.54.1-6.15 1.64-7.84 4.58a7.4 7.4 0 0 0-1 3.78c.11 4.06 4.2 8.17 12.24 12.33 2 1.1 5.28 2.73 9.8 4.9 12.88 5.89 21.89 11.05 27.02 15.5 7.37 6.56 11.21 14.17 11.55 22.82.32 11.34-5.1 20.6-16.25 27.8-9.22 5.88-20.02 9-32.4 9.34-15.32.41-27.81-3-37.5-10.23C6.85-16.57 2.39-24.88 2-35.06l-.02-.47c-.09-3.54 1.4-6.04 4.49-7.49a8.29 8.29 0 0 1 3.42-.87l22.33-.61c3.54-.1 6.03 1.5 7.48 4.8a8.1 8.1 0 0 1 .7 3.1l.12 3.6c.13 5 2.61 8.21 7.45 9.64 1.47.38 2.88.55 4.23.52 4.68-.14 8.02-1.85 10.02-5.13a8.86 8.86 0 0 0 1.12-4.42zm0 0"/></symbol><symbol id="h" overflow="visible"><path d="M36.2-54.92c-8.53-8.88-11.52-18.63-8.98-29.28 2.83-11.43 10.52-18.85 23.08-22.27 9.22-2.54 19.3-2.45 30.22.27 16.27 4.04 28.02 10.5 35.26 19.39 5.2 6.67 6.9 13.9 5.06 21.72l-.1.45c-.86 3.44-2.97 5.43-6.32 5.98a9.47 9.47 0 0 1-3.34-.17l-21.69-5.4c-3.53-.88-5.57-3.04-6.1-6.5a8.5 8.5 0 0 1 .15-3.2l.1-.44c.94-3.74-.31-6.47-3.76-8.2-.58-.24-1.18-.45-1.78-.6-3.95-.98-7.45.13-10.5 3.34a12.46 12.46 0 0 0-3.17 5.67l-1.92 7.74c-1.18 4.75.25 8.48 4.3 11.2 1.31.76 2.63 1.3 3.95 1.63l11.97 2.98.4-1.67c.85-3.44 2.96-5.44 6.33-6a8.55 8.55 0 0 1 3.33.19l21.84 5.42c3.44.85 5.44 2.96 6 6.33a9.66 9.66 0 0 1-.19 3.32l-.4 1.68 1.97.5c3.43.85 5.43 2.96 5.98 6.3a9.56 9.56 0 0 1-.17 3.35l-1.86 7.42c-.86 3.44-2.96 5.44-6.31 6a8.95 8.95 0 0 1-3.35-.18l-1.97-.5-3.28 13.18C107.84 7.27 98.2 14.6 82 16.7c-9.73 1.12-20.2.29-31.42-2.5C35.92 10.54 24.9 3.89 17.53-5.78c-6.62-8.74-8.62-18.42-5.97-29.03C14.12-45.12 21.77-51.7 34.5-54.53c.57-.18 1.14-.3 1.7-.4zm40.72 27.2-15-3.73c-4.75-1.2-8.49-.2-11.22 3a11.24 11.24 0 0 0-2.22 4.43l-.39 1.52c-1.15 4.66.62 8.75 5.33 12.28 1.9 1.44 3.8 2.4 5.74 2.88 4.44 1.1 8.23.32 11.36-2.33a8.95 8.95 0 0 0 3.12-4.86zm0 0"/></symbol><symbol id="i" overflow="visible"><path d="M143.52-48.52c2.91-2 5.87-2.14 8.87-.45l19.1 11.6c3.03 1.84 4.3 4.44 3.84 7.8a9.8 9.8 0 0 1-1.17 3.15l-54.49 89.75c-1.84 3.03-4.45 4.31-7.81 3.84a8.8 8.8 0 0 1-3.14-1.17l-19.1-11.6c-3.03-1.83-4.3-4.43-3.84-7.8.24-1.2.63-2.25 1.17-3.15L111.2 3.52 94.73 14.38c-4.16 2.83-8.25 3.34-12.26 1.53-.5-.2-.93-.4-1.28-.61L71.7 9.53c-4.45-2.7-6.68-6.55-6.68-11.55.09-.55.16-1.06.2-1.53l2.16-19.53-24.24 39.94c-1.84 3.03-4.45 4.32-7.81 3.86a8.8 8.8 0 0 1-3.14-1.17L12.95 7.85C9.93 6.03 8.65 3.43 9.11.06a9.66 9.66 0 0 1 1.17-3.13l54.49-89.75c1.83-3.03 4.44-4.31 7.82-3.86 1.2.24 2.24.64 3.13 1.17l19.23 11.7c2.97 1.91 4.2 4.6 3.7 8.07l-2.96 55.42Zm0 0"/></symbol><symbol id="j" overflow="visible"><path d="m72.17 12.42 16.5-27.98L62 2.94ZM60.16 32.64 42.67 16.33l-7.76 5.34c-3.96 2.57-7.8 2.56-11.5-.03-.53-.35-.98-.71-1.36-1.06L5.03 4.68C3.43 3.2 2.95 1.19 3.6-1.33a6.63 6.63 0 0 1 2.64-3.74l94.83-55.12c3.97-2.57 7.8-2.56 11.5.04.53.35 1 .7 1.38 1.05l16.44 15.36c3.65 3.4 4.45 7.43 2.4 12.08-.22.22-.35.44-.4.67L83.91 67.4a5.4 5.4 0 0 1-.84 1.37c-1.78 1.9-4.05 2.42-6.8 1.56a5.32 5.32 0 0 1-2.03-1.03l-16.9-15.78c-3.66-3.42-4.54-7.38-2.63-11.86l.53-1zm0 0"/></symbol><symbol id="k" overflow="visible"><path d="M63.06 32.95c3.67-2.76 4.87-8.88 3.61-18.36-.25-2.41-.85-6.32-1.8-11.73-2.5-13.75-3.42-23.81-2.73-30.19 1.03-9.37 4.72-16.51 11.06-21.42 8.67-6.5 18.92-7.43 30.75-2.78 9.94 3.87 18.44 10.51 25.52 19.92 8.88 11.84 13.22 23.5 13.01 34.98-.2 9.8-3.94 17.5-11.21 23.08l-.38.28c-2.84 2.14-5.73 2.36-8.69.68a9.6 9.6 0 0 1-2.47-2.25L106.22 7.17c-2.13-2.83-2.34-5.73-.66-8.69A9.24 9.24 0 0 1 107.8-4l3-2.25c2.83-2.13 3.44-5.13 1.84-9-.46-.96-.97-1.81-1.53-2.56-2.13-2.82-4.89-4.07-8.28-3.74a7.4 7.4 0 0 0-3.66 1.38c-3.25 2.45-4.24 8.15-2.98 17.1.27 2.27.83 5.87 1.7 10.84 2.63 13.9 3.61 24.23 2.95 31-1.09 9.8-5.07 17.35-11.92 22.64-9.08 6.8-19.78 7.74-32.1 2.8-10.12-4.12-18.9-11.14-26.35-21.05-9.2-12.25-13.64-24.4-13.33-36.47.31-10.68 4.52-19.12 12.63-25.33l.37-.28c2.83-2.13 5.73-2.36 8.69-.67 1.1.6 2 1.36 2.69 2.28L54.94.55c2.13 2.83 2.27 5.79.42 8.87a8.34 8.34 0 0 1-2.13 2.4l-2.87 2.15c-4 3-5.19 6.88-3.56 11.64a15.35 15.35 0 0 0 2.03 3.75c2.81 3.75 6.14 5.49 9.98 5.22a8.8 8.8 0 0 0 4.25-1.63zm0 0"/></symbol><symbol id="l" overflow="visible"><path d="M114.94-40.53 125-20.43c1.58 3.18 1.28 6.07-.9 8.68a9.69 9.69 0 0 1-2.66 2.02l-39.4 19.7 10 19.98 39.4-19.7c3.16-1.59 6.05-1.28 8.65.9a9.78 9.78 0 0 1 2.03 2.68l10.07 20.1c1.58 3.17 1.28 6.06-.9 8.68a9.78 9.78 0 0 1-2.66 2.03L54.72 91.61c-3.17 1.58-6.06 1.27-8.66-.92a8.5 8.5 0 0 1-2.03-2.66l-10.06-20.1c-1.59-3.19-1.28-6.08.9-8.68a9.76 9.76 0 0 1 2.66-2.03l33.95-16.99-10-19.98-33.95 16.98c-3.17 1.59-6.05 1.29-8.66-.9a8.5 8.5 0 0 1-2.03-2.66L6.78 13.57c-1.58-3.19-1.28-6.08.9-8.68a9.76 9.76 0 0 1 2.66-2.03l93.91-46.97c3.16-1.58 6.05-1.28 8.66.9a9.78 9.78 0 0 1 2.03 2.68zm0 0"/></symbol><symbol id="m" overflow="visible"><path d="m86.08 4.6 22.98 24.27c2.5 2.65 3.05 5.58 1.64 8.79a8.71 8.71 0 0 1-1.84 2.6l-9.53 9.02c-10.22 9.67-22.38 12.43-36.49 8.28-9.79-2.93-18.66-8.59-26.6-16.98C26.06 29.83 20.55 18.32 19.71 6.06c-.64-11.29 3.17-20.9 11.42-28.86l32.23-30.5c10.21-9.65 22.3-12.48 36.27-8.48 9.79 2.92 18.7 8.62 26.72 17.1 10.44 11.04 16.24 22.54 17.39 34.5.88 10.65-2.4 19.55-9.81 26.71l-2.72 2.58c-2.58 2.44-5.5 2.9-8.78 1.4a8.4 8.4 0 0 1-2.6-1.84L104.48 2.44c-2.43-2.57-2.98-5.42-1.64-8.55a9.76 9.76 0 0 1 1.97-2.7l4.99-4.72c3.49-3.3 4.25-7.2 2.3-11.67a13.14 13.14 0 0 0-2.43-3.7c-3.37-3.57-7.05-4.73-11.06-3.5a11.42 11.42 0 0 0-4.28 2.52L52.8 9.42c-3.48 3.3-4.26 7.17-2.33 11.64a12.9 12.9 0 0 0 2.45 3.72c3.37 3.55 7.05 4.72 11.06 3.52a11.3 11.3 0 0 0 4.29-2.53l3.17-3-2.16-2.27c-2.44-2.57-2.9-5.5-1.4-8.78a8.27 8.27 0 0 1 1.84-2.61l5.1-4.83c2.58-2.44 5.43-2.98 8.56-1.64 1 .47 1.9 1.12 2.7 1.95zm0 0"/></symbol><symbol id="n" overflow="visible"><path d="M23.7 68.7Zm48.03-55.42 33.94-46.03c2.85-3.85 2.92-7.81.22-11.88a13.15 13.15 0 0 0-3.08-3.23c-3.94-2.9-7.77-3.4-11.5-1.5a11.48 11.48 0 0 0-3.75 3.27L53.62-.06c-2.84 3.85-2.9 7.81-.2 11.87a13.03 13.03 0 0 0 3.05 3.22c3.94 2.9 7.78 3.4 11.5 1.49 1.52-.82 2.77-1.9 3.76-3.24zm-45.1-41.22 26.32-35.72C61.3-74.98 72.7-79.9 87.12-78.44c10.17 1.14 19.95 5.17 29.33 12.1 11.9 8.77 19.4 19.07 22.46 30.9 2.64 11.15.61 21.37-6.1 30.66l-26.33 35.72c-8.34 11.32-19.82 16.18-34.45 14.6-10.15-1.16-19.87-5.17-29.19-12.02C30.94 24.73 23.5 14.39 20.5 2.48c-2.64-11-.6-21.14 6.13-30.42zm0 0"/></symbol><symbol id="o" overflow="visible"><path d="M106.7-56.34 66.64 24.23c-1.57 3.18-4.15 4.63-7.73 4.35a8.11 8.11 0 0 1-3.08-.83L35.8 17.81c-3.17-1.58-4.66-4.08-4.48-7.48.14-1.2.44-2.27.9-3.2L72.3-73.45l-19.32-9.61c-3.26-1.63-4.78-4.18-4.56-7.67.1-1.12.37-2.14.83-3.08l3.14-6.3c1.57-3.16 4.16-4.62 7.75-4.36 1.11.1 2.14.37 3.08.83l73.03 36.31c3.18 1.58 4.67 4.06 4.48 7.47a9.8 9.8 0 0 1-.89 3.22l-3.14 6.3c-1.57 3.16-4.06 4.66-7.47 4.48a9.26 9.26 0 0 1-3.21-.89zm0 0"/></symbol><symbol id="p" overflow="visible"><path d="m48.36-111.88 21.6 6.3c3.4 1 5.31 3.17 5.74 6.55a9.54 9.54 0 0 1-.3 3.31L63.07-53.4l21.45 6.25 12.31-42.3c1-3.4 3.18-5.31 6.55-5.74a9.89 9.89 0 0 1 3.33.33l21.6 6.28c3.4.99 5.31 3.17 5.74 6.54a9.89 9.89 0 0 1-.33 3.33L104.4 22.1c-1 3.41-3.18 5.32-6.56 5.75-1.12.1-2.22 0-3.31-.32l-21.63-6.3c-3.4-.99-5.31-3.18-5.74-6.56a9.7 9.7 0 0 1 .33-3.33L78.1-25.1l-21.44-6.25L46.05 5.1c-1 3.41-3.18 5.32-6.57 5.75-1.11.1-2.22 0-3.32-.3l-21.61-6.3c-3.4-1-5.31-3.18-5.74-6.55a9.7 9.7 0 0 1 .33-3.33l29.34-100.81c1-3.4 3.18-5.32 6.55-5.75a9.89 9.89 0 0 1 3.33.33zm0 0"/></symbol><symbol id="q" overflow="visible"><path d="m50.16-40.94-2.4 22.85 46 4.8c3.53.38 5.8 2.2 6.82 5.43.29 1.2.38 2.31.28 3.34l-.73 7c-.37 3.52-2.18 5.79-5.43 6.8-1.08.31-2.2.4-3.33.28l-76.3-7.98C11.56 1.2 9.29-.6 8.26-3.84a9.74 9.74 0 0 1-.28-3.33L18.9-111.61c.36-3.52 2.17-5.79 5.43-6.81a9.9 9.9 0 0 1 3.33-.28l74.75 7.83c3.52.36 5.8 2.17 6.81 5.43a9.6 9.6 0 0 1 .29 3.31l-.74 7c-.37 3.53-2.18 5.8-5.44 6.82a9.8 9.8 0 0 1-3.3.28L55.57-92.7l-3.03 28.9 37.92 3.98c3.52.37 5.79 2.18 6.81 5.42.3 1.19.4 2.3.28 3.33l-.73 7c-.37 3.52-2.17 5.79-5.42 6.81a8.7 8.7 0 0 1-3.33.28zm0 0"/></symbol><symbol id="r" overflow="visible"><path d="m67-126.1 22.44-1.63c3.54-.25 6.1 1.13 7.67 4.15.5 1.1.78 2.18.86 3.22l7.58 104.72c.25 3.53-1.12 6.09-4.14 7.67-1.02.5-2.1.78-3.24.86L75.73-5.48c-3.43.25-5.93-1.14-7.51-4.16-.1-.1-.17-.2-.17-.3l-.14.02-26.36-47.92 3.37 46.59c.26 3.53-1.12 6.09-4.14 7.67-1.01.5-2.08.78-3.22.86L15.11-1.09c-3.53.26-6.09-1.12-7.66-4.14a9.46 9.46 0 0 1-.86-3.24L-.98-113.19c-.26-3.53 1.11-6.08 4.14-7.67a9.54 9.54 0 0 1 3.21-.86l22.46-1.62a8.1 8.1 0 0 1 6.78 2.8c.12.2.25.5.39.92.46.68.75 1.24.9 1.65l26.13 47.3-3.39-46.9c-.26-3.54 1.12-6.1 4.14-7.68a9.54 9.54 0 0 1 3.22-.86zm0 0"/></symbol><symbol id="s" overflow="visible"><path d="m25.34-83.08 7.7-2.01c4.64-1.22 7.4-3.83 8.29-7.83.41-1.72.4-3.44-.05-5.16l-.8-3.01c-1.27-4.84-4.42-7.4-9.45-7.7-1.31-.09-2.68.06-4.1.43l-7.7 2.02zm6 22.83 6.96 26.44 10.89-2.86c4.62-1.22 7.36-3.88 8.23-7.97.3-1.7.24-3.35-.19-4.97l-1.62-6.19c-1.3-4.93-4.45-7.5-9.45-7.7-1.32-.08-2.62.05-3.93.4zm45.97-51.34c2.5 9.9-.5 19.15-9.01 27.75 12.6 2.5 20.74 8.7 24.42 18.62.36.98.66 1.92.9 2.83 3.5 13.3.03 24.7-10.39 34.23-6.53 5.91-14.93 10.21-25.2 12.91L14.66-3.85c-3.43.9-6.2.01-8.29-2.67-.7-1-1.18-2.01-1.45-3.01L-21.75-111.1c-.9-3.43 0-6.2 2.67-8.28 1-.7 2.01-1.18 3.02-1.44l40.36-10.61c15.8-4.16 28.85-3.49 39.12 2a27.51 27.51 0 0 1 13.9 17.83zm0 0"/></symbol><symbol id="t" overflow="visible"><path d="m-38.4-115.58 20.37-9.56c3.21-1.5 6.1-1.13 8.66 1.12.85.86 1.5 1.76 1.95 2.7l34.47 73.4c2.08 4.44 5.55 6.44 10.4 6 1.5-.24 2.86-.65 4.08-1.24 4.44-2.07 6.7-5.2 6.81-9.4a11.52 11.52 0 0 0-1.07-4.86l-34.47-73.4c-1.51-3.2-1.14-6.08 1.12-8.63a9.28 9.28 0 0 1 2.7-1.96l20.36-9.57c3.21-1.5 6.1-1.12 8.66 1.14.85.85 1.5 1.75 1.95 2.7l31.75 67.6c5.97 12.72 4.78 25.13-3.57 37.23-5.85 8.4-14 15.04-24.47 19.95-13.39 6.3-26.03 7.92-37.94 4.88-10.93-2.94-18.87-9.57-23.83-19.9l-31.75-67.59c-1.5-3.2-1.13-6.1 1.13-8.66a9.38 9.38 0 0 1 2.7-1.95zm0 0"/></symbol><symbol id="u" overflow="visible"><path d="m-.6-78.9 9.12-6.58c4.14-2.98 5.73-6.57 4.78-10.75-.3-1.47-.9-2.84-1.82-4.1L4-110.73c-2.87-3.97-6.64-5.3-11.34-3.97-1.34.46-2.6 1.11-3.79 1.97l-9.12 6.57zm88.77 10.17c1.04 2.34.6 4.4-1.33 6.17L67.31-48.5c-3.63 2.62-7.94 3.15-12.9 1.6-.3-.06-.97-.28-2.02-.66L17.34-63.33l-4.43 3.19 19.45 27c2.07 2.87 2.24 5.78.5 8.7a8.63 8.63 0 0 1-2.31 2.42L12.3-8.86c-2.88 2.07-5.78 2.24-8.7.5a9.5 9.5 0 0 1-2.43-2.31L-60.2-95.86c-2.07-2.87-2.24-5.77-.49-8.69a9.46 9.46 0 0 1 2.3-2.43l33.84-24.4c12-8.64 24.14-12.56 36.4-11.76 11.26.87 20.3 5.91 27.07 15.14 8.16 11.32 9.38 23.54 3.69 36.64l-1.06 2.3 43.3 18.1a6.28 6.28 0 0 1 3.32 2.23zm0 0"/></symbol><symbol id="v" overflow="visible"><path d="m.53-86.2 23.17-24.11c2.53-2.63 5.43-3.3 8.7-2.05 1.03.43 1.93 1 2.68 1.73l9.45 9.1c10.13 9.75 13.47 21.76 10 36.05-2.46 9.91-7.7 19.04-15.72 27.37C28.56-27.45 17.33-21.4 5.12-20-6.1-18.82-15.9-22.16-24.23-30.02l-31.99-30.76c-10.13-9.74-13.53-21.68-10.2-35.83 2.46-9.91 7.73-19.08 15.81-27.48 10.54-10.97 21.77-17.3 33.67-19.02 10.58-1.38 19.62 1.47 27.13 8.55l2.7 2.6c2.55 2.45 3.16 5.35 1.83 8.68A8.52 8.52 0 0 1 13-120.6l-15.48 16.1c-2.46 2.56-5.29 3.24-8.47 2.05a9.8 9.8 0 0 1-2.8-1.83l-4.95-4.76c-3.46-3.32-7.38-3.91-11.75-1.77-1.39.7-2.59 1.58-3.6 2.63-3.4 3.52-4.39 7.26-2.98 11.2.62 1.62 1.53 3 2.73 4.16L6.92-53.17c3.45 3.32 7.36 3.91 11.74 1.76 1.4-.7 2.6-1.57 3.6-2.62 3.4-3.53 4.4-7.27 2.99-11.22a11.51 11.51 0 0 0-2.73-4.14l-3.16-3.03-2.16 2.25c-2.46 2.55-5.36 3.16-8.7 1.83a8.3 8.3 0 0 1-2.69-1.74L.75-74.94c-2.55-2.45-3.23-5.28-2.05-8.47a8.58 8.58 0 0 1 1.83-2.8zm0 0"/></symbol></defs><path fill="#f8f5e6" d="M794.58 1589.16c-107.26 0-211.32-21-309.29-62.44a791.77 791.77 0 0 1-252.56-170.28c-72.97-72.97-130.26-157.95-170.28-252.57C21 1005.91 0 901.85 0 794.58 0 687.32 21.01 583.26 62.45 485.3a791.6 791.6 0 0 1 170.28-252.56c72.97-72.97 157.94-130.26 252.56-170.28C583.26 21 687.32 0 794.6 0c107.25 0 211.32 21.01 309.29 62.45a791.83 791.83 0 0 1 252.56 170.28c72.97 72.97 130.26 157.94 170.28 252.56 41.43 97.97 62.44 202.03 62.44 309.3 0 107.26-21 211.32-62.44 309.28-40.02 94.62-97.31 179.6-170.28 252.57s-157.95 130.26-252.56 170.28c-97.97 41.43-202.04 62.44-309.3 62.44"/><path fill="#050705" d="M1000 1772.37c-104.27 0-205.41-20.42-300.64-60.7a769.8 769.8 0 0 1-245.5-165.52 769.8 769.8 0 0 1-165.53-245.5c-40.28-95.23-60.7-196.38-60.7-300.65 0-104.27 20.42-205.41 60.7-300.64a769.76 769.76 0 0 1 165.52-245.5 769.8 769.8 0 0 1 245.5-165.53c95.24-40.28 196.38-60.7 300.65-60.7 104.27 0 205.41 20.42 300.64 60.7a769.8 769.8 0 0 1 245.5 165.52 769.76 769.76 0 0 1 165.53 245.5c40.28 95.24 60.7 196.38 60.7 300.65 0 104.27-20.42 205.42-60.7 300.64a769.8 769.8 0 0 1-165.52 245.5 769.8 769.8 0 0 1-245.5 165.53c-95.24 40.28-196.38 60.7-300.65 60.7m0 0c-104.27 0-205.41-20.42-300.64-60.7a769.8 769.8 0 0 1-245.5-165.52 769.8 769.8 0 0 1-165.53-245.5c-40.28-95.23-60.7-196.38-60.7-300.65 0-104.27 20.42-205.41 60.7-300.64a769.76 769.76 0 0 1 165.52-245.5 769.8 769.8 0 0 1 245.5-165.53c95.24-40.28 196.38-60.7 300.65-60.7 104.27 0 205.41 20.42 300.64 60.7a769.8 769.8 0 0 1 245.5 165.52 769.76 769.76 0 0 1 165.53 245.5c40.28 95.24 60.7 196.38 60.7 300.65 0 104.27-20.42 205.42-60.7 300.64a769.8 769.8 0 0 1-165.52 245.5 769.8 769.8 0 0 1-245.5 165.53c-95.24 40.28-196.38 60.7-300.65 60.7" style="font-variation-settings:normal;-inkscape-stroke:none" transform="translate(-205.42 -205.42)"/><path fill="#ca1e26" d="M794.58 22.21zm0 0zm-77.57 3.82a764.74 764.74 0 0 0-223.07 56.88A765.08 765.08 0 0 1 717 26.03zm159.38.53c37 3.88 73.5 10.3 109.35 19.45a770.55 770.55 0 0 1 109.48 36.9c23 9.73 45.4 20.5 67.2 32.3a766.45 766.45 0 0 1 122.96 82.9 768.57 768.57 0 0 0-190.16-115.2A764.65 764.65 0 0 0 876.4 26.56zM794.6 43.2a750.18 750.18 0 0 0-223.2 33.84 745.07 745.07 0 0 0-134.66 56.98 752.65 752.65 0 0 0-91.42 58.65 757.82 757.82 0 0 0-193.17 212.59 751.66 751.66 0 0 0-49.79 97.13A744.97 744.97 0 0 0 58.5 643.35a749.62 749.62 0 0 0-15.29 151.23 756.77 756.77 0 0 0 8.67 114.27 746.5 746.5 0 0 0 37 143.81 749.76 749.76 0 0 0 103.8 191.2 757.17 757.17 0 0 0 244.05 211.27 747.89 747.89 0 0 0 170.3 67.13 744.95 744.95 0 0 0 110.84 19.8 756.82 756.82 0 0 0 76.71 3.9c414.31 0 751.37-337.07 751.37-751.38 0-414.3-337.06-751.37-751.37-751.37zM222.54 275.58zM26.03 717zm-3.82 77.57c0 25.17 1.25 50.14 3.62 74.9a779.31 779.31 0 0 1-2.66-35.95 791.24 791.24 0 0 1-.96-38.95zm1368.84-490.8a767.06 767.06 0 0 1 99.83 156.11 778.33 778.33 0 0 1 15.37 34.05 767.63 767.63 0 0 1 45.45 146.93 765.08 765.08 0 0 1 11.43 76.14 779.38 779.38 0 0 1 3.82 77.57c0 26.07-1.28 51.94-3.82 77.57a765.6 765.6 0 0 1-56.88 223.08c40.28-95.22 60.7-196.38 60.7-300.64 0-104.26-20.42-205.43-60.7-300.64a768.18 768.18 0 0 0-115.2-190.16zm115.2 791.45a778.36 778.36 0 0 1-32.3 67.18 767.39 767.39 0 0 1 32.3-67.18zM26.63 876.92a764.64 764.64 0 0 0 56.28 218.3 770.43 770.43 0 0 1-26.47-72.48A763.12 763.12 0 0 1 30.8 910.42a770.7 770.7 0 0 1-4.17-33.5zm277.15 514.13a768.18 768.18 0 0 0 190.16 115.2 765.57 765.57 0 0 0 259.03 59.55 779.43 779.43 0 0 1-35.96-2.67 765.58 765.58 0 0 1-257.12-72.25 767.3 767.3 0 0 1-156.1-99.83zm981.6 0a769.08 769.08 0 0 1-90.76 64.43 768.18 768.18 0 0 0 90.76-64.44zm-190.15 115.2z"/><path fill="#f8f5e6" d="M1366.78 794.58c0 77.24-15.13 152.19-44.97 222.72a570.21 570.21 0 0 1-122.62 181.89 570.17 570.17 0 0 1-181.89 122.62c-70.54 29.84-145.48 44.97-222.72 44.97-77.24 0-152.18-15.13-222.72-44.97a570.17 570.17 0 0 1-181.88-122.62 570.21 570.21 0 0 1-122.62-181.89c-29.85-70.53-44.97-145.48-44.97-222.72 0-77.24 15.12-152.18 44.97-222.72a570.21 570.21 0 0 1 122.62-181.88 570.17 570.17 0 0 1 181.88-122.62c70.54-29.85 145.48-44.97 222.72-44.97 77.24 0 152.18 15.12 222.72 44.97a570.17 570.17 0 0 1 181.89 122.62 570.21 570.21 0 0 1 122.62 181.88c29.84 70.54 44.97 145.48 44.97 222.72"/><use xlink:href="#a" x="427.25" y="784.14" fill="#f8f5e6" transform="translate(-205.42 -205.42)"/><use xlink:href="#b" x="477.3" y="685.24" fill="#f8f5e6" transform="translate(-205.42 -205.42)"/><use xlink:href="#c" x="543.46" y="597.41" fill="#f8f5e6" transform="translate(-205.42 -205.42)"/><use xlink:href="#d" x="628.18" y="520.01" fill="#f8f5e6" transform="translate(-205.42 -205.42)"/><use xlink:href="#e" x="721.29" y="461.98" fill="#f8f5e6" transform="translate(-205.42 -205.42)"/><use xlink:href="#f" x="818.57" y="422.2" fill="#f8f5e6" transform="translate(-205.42 -205.42)"/><use xlink:href="#g" x="930.49" y="399.36" fill="#f8f5e6" transform="translate(-205.42 -205.42)"/><use xlink:href="#h" x="1090.19" y="401.25" fill="#f8f5e6" transform="translate(-205.42 -205.42)"/><use xlink:href="#i" x="1257.11" y="449.47" fill="#f8f5e6" transform="translate(-205.42 -205.42)"/><use xlink:href="#j" x="1378.86" y="525.64" fill="#f8f5e6" transform="translate(-205.42 -205.42)"/><use xlink:href="#k" x="1459.04" y="600.7" fill="#f8f5e6" transform="translate(-205.42 -205.42)"/><use xlink:href="#l" x="1523.4" y="686" fill="#f8f5e6" transform="translate(-205.42 -205.42)"/><use xlink:href="#m" x="445.14" y="1469.58" fill="#f8f5e6" transform="translate(-205.42 -205.42)"/><use xlink:href="#n" x="533.79" y="1560.94" fill="#f8f5e6" transform="translate(-205.42 -205.42)"/><use xlink:href="#o" x="637.15" y="1634.75" fill="#f8f5e6" transform="translate(-205.42 -205.42)"/><use xlink:href="#p" x="745.96" y="1687.59" fill="#f8f5e6" transform="translate(-205.42 -205.42)"/><use xlink:href="#q" x="873.64" y="1722.5" fill="#f8f5e6" transform="translate(-205.42 -205.42)"/><use xlink:href="#r" x="995.63" y="1734.08" fill="#f8f5e6" transform="translate(-205.42 -205.42)"/><use xlink:href="#s" x="1128.13" y="1722.53" fill="#f8f5e6" transform="translate(-205.42 -205.42)"/><use xlink:href="#t" x="1252.32" y="1688.18" fill="#f8f5e6" transform="translate(-205.42 -205.42)"/><use xlink:href="#u" x="1370.35" y="1630.82" fill="#f8f5e6" transform="translate(-205.42 -205.42)"/><use xlink:href="#v" x="1476.41" y="1552" fill="#f8f5e6" transform="translate(-205.42 -205.42)"/><path fill="#050705" d="M550.9 1140.45c-.2-7.79.5-16.45 2.7-24.96 4.28-16.5 12.6-30.58 25.24-42.06.62-.57 1.24-1.16 1.94-1.63 9.56-6.3 19.54-11.75 30.89-14.12a56.43 56.43 0 0 1 39.61 5.82c6.49 3.52 12.07 8.23 17.44 13.2.83.77 1.57 1.63 2.42 2.36 7.36 6.3 11.92 14.46 15.53 23.27 4.1 10.01 5.88 20.5 6.76 31.2.25 3.09.62 6.16.82 9.24.14 2.1.04 4.22.16 6.32.13 2.1.26 4.21.65 6.27.42 2.26 1.98 3.7 4.16 4.33 3.34.97 6.5.57 8.96-2.02a46.72 46.72 0 0 0 5.62-6.81 2072 2072 0 0 0 18.61-29.65c2.22-3.59 4.21-7.3 6.24-11a22.59 22.59 0 0 0 1.66-3.86 5.1 5.1 0 0 0-1.37-5.42 18.4 18.4 0 0 0-2.24-1.92 114.76 114.76 0 0 1-28.56-30.71c-19.48-30.65-34.5-63.43-46.41-97.68a579.35 579.35 0 0 1-22.64-86.37c-1.77-9.68-3.08-19.43-4.6-29.15-.22-1.39-.38-2.8-.74-4.15a7.9 7.9 0 0 0-1.25-2.62c-1-1.33-2.54-1.22-3.48.2-.63.93-1.12 1.95-1.67 2.92-21.23 37.25-53.02 60.4-94.42 70.68-11.68 2.9-23.56 3.8-35.56 3.6-63.61-1.05-122.85-46.27-138-112.76a148.72 148.72 0 0 1-3.5-36 137.63 137.63 0 0 1 6.14-37.74c.12-.4.2-.82.35-1.21 1.55-4.03.68-7.23-2.66-10.15-7.88-6.87-10.88-15.9-10.42-26.1.39-8.8 4.33-15.64 12.56-19.47a7.23 7.23 0 0 0 4.46-6.1 23.23 23.23 0 0 1 7.16-14 20.08 20.08 0 0 1 11.99-5.63c.7-.08 1.4-.1 2.1-.2a6.13 6.13 0 0 0 4.95-4.08c.3-.79.5-1.61.7-2.43 2.68-10.88 12-17.72 25.37-14.72 4.58 1.03 8.7 3.16 12.59 5.77 1.28.86 2.55 1.76 3.72 2.76 3.4 2.9 7.3 3.41 11.5 2.47a34.8 34.8 0 0 0 4.43-1.36 138.04 138.04 0 0 1 32.66-8.07c9.5-1.07 19.03-1.41 28.62-.53 11.54 1.08 22.82 3.13 33.82 6.73a144.35 144.35 0 0 1 56.5 34.23c2.52 2.45 5 4.95 7.52 7.4a9.4 9.4 0 0 0 7.3 2.68 5.93 5.93 0 0 0 3.84-1.43c4.04-3.55 7.63-7.49 10.36-12.14a11 11 0 0 0 1.41-3.91c1.5-10.15 2.88-20.31 4.3-30.47.08-.56.14-1.12.18-1.68.27-3.41-1.11-5.25-4.56-5.83-2.22-.37-4.46-.6-6.7-.73-8.56-.49-17.12-.93-25.69-1.35-3.93-.2-7.87-.25-11.8-.47-5.33-.28-10.66-.66-15.99-1l-2.95-.21c-2.97-.25-5.82.04-8.64 1.26a16.35 16.35 0 0 1-11.14.86c-1.21-.33-2.5-.62-3.57-1.22a64.15 64.15 0 0 1-7.15-4.44c-2.97-2.22-4.3-5.47-4.75-9.1-.25-1.94-.43-3.9-.7-5.84-.35-2.57-.06-5.09.94-7.45a13.98 13.98 0 0 0 .84-7.75c-.87-6.12 1.1-11.34 6.36-15.08a33.72 33.72 0 0 0 4.46-3.81c6.06-6.14 12.81-6.88 20.15-2.09 6.9 4.52 6.92 4.44 15.12 5.63 10.42 1.53 20.83 3.19 31.24 4.82 8.88 1.38 17.75 2.8 26.64 4.19 3.57.55 6.78-1.2 8.61-4.71.45-.86.74-1.83.96-2.78 2.25-9.72 5-19.3 7.92-28.84.33-1.08.75-2.14.92-3.24.43-2.85-.33-5.29-2.78-7-.69-.5-1.43-.9-2.13-1.37-11.95-7.96-19.5-19-22.23-33.04-5-25.79 10.62-51.94 37.9-58.77a51.13 51.13 0 0 1 21.75-.52c2.11.38 4.18.4 6.26-.2a6.49 6.49 0 0 0 4.2-3.26c1.76-3.36 3.57-6.7 5.25-10.1 1.2-2.44.8-3.88-1.7-5.25a98.44 98.44 0 0 0-10.97-5.36 18.11 18.11 0 0 0-14.75.46c-.9.41-1.79.83-2.7 1.2-.65.26-1.3.54-2 .64-1.6.26-3.13.02-4.09-1.48-1-1.56-.92-3.22.03-4.77.42-.72 1-1.38 1.62-1.92 3.7-3.2 7.93-5.3 12.86-5.8a31.2 31.2 0 0 1 16.45 2.62c2.17 1 4.37 1.94 6.58 2.84 1.04.42 2.12.8 3.22.99 2.39.39 4.47-.3 6-2.25.78-.98 1.42-2.09 2.09-3.16 9.45-15.18 20.03-29.56 31.18-43.53a102.57 102.57 0 0 1 24.9-22.55c7.1-4.56 14.15-9.2 21.72-12.97a131.7 131.7 0 0 1 40.42-12.82c3.75-.53 7.56-.68 11.34-1 .84-.07 1.69-.02 2.53-.11 1.95-.22 3.12-1.22 3.26-3.21.1-1.5.03-3.15-.46-4.55a70.54 70.54 0 0 0-3.63-8.5c-1.6-3.13-3.56-6.07-5.21-9.17-3.07-5.78-4.24-11.92-2.79-18.36 1.77-7.83 6.7-12.85 14.33-15.11 5.54-1.65 11.1-1.38 16.62.36 8.28 2.61 15.09 7.4 20.79 13.86.64.74 1.34 1.47 1.84 2.3 3.3 5.47 7.55 6.11 13.9 3.54 3.8-1.54 7.54-3.12 11.6-3.78 4.31-.7 8.66-1.03 13.01-.44 6.52.9 11.77 5.93 12.93 12.18.54 2.9-.23 5.57-1.12 8.25-.53 1.6-1.24 3.13-1.76 4.74a1.67 1.67 0 0 0 1.81 2.17c1.1-.12 2.2-.43 3.24-.82a36.54 36.54 0 0 1 16.19-2.04 27.76 27.76 0 0 1 16.09 6.68c8.32 7.13 9.12 17.05 5.86 25.31-2.18 5.52-5.95 9.83-10.68 13.32a39.93 39.93 0 0 1-11.26 5.65c-5.5 1.84-10.65 4.37-15.12 8.16-4.15 3.52-5.04 8.05-2.21 12.74a126.63 126.63 0 0 1 12.42 27.63 149.5 149.5 0 0 1 5.65 27.62c.96 8.29.98 16.57.57 24.86-.27 5.34-1.48 10.57-2.93 15.71-3.05 10.82-6.2 21.6-9.3 32.4-.4 1.35-.88 2.68-1.15 4.05-.55 2.8.4 4.61 3.01 5.79 1.02.46 2.12.79 3.21 1.03 4.63 1.03 7.34 3.92 8.36 8.47a505.6 505.6 0 0 1 3.13 14.4c.44 2.2.61 4.45.82 6.68.08.83.04 1.7-.14 2.52-.49 2.2-1.76 3.9-3.97 4.52-2.3.66-4.56.23-6.11-1.74a13.88 13.88 0 0 1-2.22-4c-1.18-3.46-2.17-6.98-3.18-10.49-.4-1.37-.81-2.7-2.09-3.53-2.5-1.62-5.6-.86-7.22 1.9a11.4 11.4 0 0 0-1.14 3.15 718.67 718.67 0 0 0-9.34 44.55 1135.5 1135.5 0 0 0-4.78 29.55c-.9 6.11-1.37 12.28-2.05 18.43a227.9 227.9 0 0 1-.53 4.6 23.9 23.9 0 0 0 .44 8.8c.96 3.89 3.45 5.69 7.32 5.3a236.66 236.66 0 0 1 32.86-1.21c9.4.37 18.8 1.07 28.12 2.55 9.59 1.54 18.33 5.32 26.32 10.77 12.48 8.51 21.14 20.03 26.22 34.24 2.07 5.82 4.17 11.64 5.13 17.79.25 1.61 1.12 2.82 2.23 3.96a48.59 48.59 0 0 0 9.2 7.36c3.45 2.16 6.9 4.33 10.33 6.54 1.42.9 2.76 1.94 4.15 2.9 1.88 1.27 2.71 2.96 2.8 5.3.5 11.8 1.13 23.6 1.73 35.4.22 4.35.5 8.7.72 13.05a16.78 16.78 0 0 0 2.4 7.55c3.97 7 7.12 14.37 8.74 22.28 3.19 15.59 2.03 30.78-4.53 45.38a26.01 26.01 0 0 0-2.32 11.88c.31 7.87.74 15.73 1.13 23.6.1 2.24.27 4.48.38 6.73.53 10.4 1.06 20.78 1.57 31.17.32 6.32.63 12.64.9 18.96.4 9.56.72 19.11 1.15 28.66.7 15.45 1.48 30.9 2.16 46.35.22 4.92.2 9.84.31 14.76.06 2.71-.46 5.31-1.37 7.85-4.34 12.03-8.8 24.02-12.92 36.13-1.58 4.66-4.49 6.7-9.19 7.22-6.7.74-13.36 1.83-20.04 2.78l-15.43 2.22c-.56.08-1.13.08-1.68.19-1 .19-1.98.46-2.16 1.66a2.38 2.38 0 0 0 1.23 2.5c3 1.8 6.02 3.63 9.1 5.32 2.71 1.48 5.49 2.85 8.3 4.15a15.33 15.33 0 0 1 6.73 6.16c3.13 5.12 4.96 10.7 6.06 16.55 1.67 8.82 1.29 17.66-.35 26.42-1.8 9.58-5.09 18.7-9.27 27.5-2.49 5.24-3.94 10.83-5.12 16.48-.35 1.63-.24 3.35-.3 5.04-.21 5.06-.38 10.11-.6 15.17-.38 8.95-2.65 17.51-5.72 25.85-5.59 15.11-13.78 28.63-25.52 39.78-13.53 12.85-29.52 21.14-47.98 23.88-26.3 3.9-49.24-3.6-68.6-21.85-11.17-10.53-18.88-23.31-24.06-37.7a79.16 79.16 0 0 1-4.3-21.02c-.48-6.37.59-12.65 2-18.81 2.94-12.9 8.85-24.31 18.57-33.44 9.64-9.07 20.99-14.46 34.4-15.05 3.38-.15 6.73-.57 10.08-.89a5.9 5.9 0 0 0 4.3-2.37c2.06-2.68 1.96-5.7-.6-7.9-1.36-1.16-3.07-1.96-4.7-2.75-4.8-2.34-9.7-4.47-14.45-6.9a135.88 135.88 0 0 1-22.02-14.04c-1.77-1.38-3.62-2.67-5.39-4.06-5-3.91-10.71-4.5-16.38-2.5-13.59 4.8-27.66 6.03-41.89 6.5-13.98.47-27.78-1.12-41.47-3.85a12.17 12.17 0 0 0-12.49 5.06 387.24 387.24 0 0 0-10.48 16.82 7793 7793 0 0 0-28.27 48.93c-2.17 3.77-4.1 7.7-6.14 11.54a14.03 14.03 0 0 0-1.51 7.31c.18 6.25-.71 12.34-3.49 18.04a25.08 25.08 0 0 1-6.94 8.91c-1 .79-1.95 1.62-2.85 2.5a22.4 22.4 0 0 0-5.8 9.66c-1.18 3.9-2.43 7.78-3.77 11.63-2.38 6.87-5.67 13.3-11.23 18.09-6.28 5.4-12.77 10.67-20.45 14.03a73.65 73.65 0 0 1-19.4 5.6c-6.48.9-12.9.04-19.16-1.9a74.28 74.28 0 0 1-21.35-10.85c-12.44-8.94-22.98-19.82-32.22-31.99-19.13-25.18-31.55-53.39-37.67-84.38-2.7-13.61-3.71-23.43-3.64-36.15"/><path d="M794.58 229.89c-311.37 0-564.7 253.32-564.7 564.7 0 311.37 253.33 564.69 564.7 564.69 311.38 0 564.7-253.32 564.7-564.7 0-311.37-253.32-564.7-564.7-564.7m0 1145.18c-78.36 0-154.38-15.35-225.95-45.62a578.55 578.55 0 0 1-184.5-124.4 578.57 578.57 0 0 1-124.4-184.5c-30.28-71.58-45.63-147.6-45.63-225.96 0-78.36 15.35-154.38 45.62-225.95a578.55 578.55 0 0 1 124.4-184.5 578.55 578.55 0 0 1 184.51-124.4c71.57-30.28 147.6-45.63 225.95-45.63 78.36 0 154.38 15.35 225.96 45.62a578.57 578.57 0 0 1 184.5 124.4 578.55 578.55 0 0 1 124.4 184.51c30.27 71.57 45.62 147.6 45.62 225.95 0 78.36-15.35 154.38-45.62 225.96a578.58 578.58 0 0 1-124.4 184.5 578.58 578.58 0 0 1-184.5 124.4c-71.58 30.27-147.6 45.62-225.96 45.62"/><path fill="#f8f5e6" d="M1458.41 794.58a660.17 660.17 0 0 1-123.28 384.91 9.33 9.33 0 0 0 7.57 14.77h.3a9.32 9.32 0 0 0 7.59-3.89 679.19 679.19 0 0 0 72.75-130.17c35.58-84.13 53.62-173.5 53.62-265.62a680.4 680.4 0 0 0-28.68-196.45 9.34 9.34 0 0 0-8.94-6.68h-.04a9.34 9.34 0 0 0-8.92 12.06 661.74 661.74 0 0 1 28.03 191.07m-1327.66 0c0-66.4 9.8-130.54 28.04-191.07a9.34 9.34 0 0 0-8.92-12.06h-.04a9.35 9.35 0 0 0-8.95 6.68 680.27 680.27 0 0 0-28.68 196.45c0 92.12 18.04 181.49 53.63 265.62a679.6 679.6 0 0 0 72.74 130.17 9.3 9.3 0 0 0 7.59 3.89h.3a9.32 9.32 0 0 0 7.57-14.77 660.17 660.17 0 0 1-123.28-384.9"/><path fill="#ba7d45" d="M642.79 756.4c.28-9.83.42-21.36.99-32.88.63-12.91 1.4-25.82 2.96-38.67 1.48-12.28 2.98-24.55 4.54-36.82.4-3.2.97-6.39 2.56-9.3a10.5 10.5 0 0 1 5.05-4.88 9.45 9.45 0 0 1 4.05-.89c6.45.35 12.9.85 19.35 1.38 1.38.12 2.75.53 4.11.88.67.17 1.33.46 1.95.79 1.61.86 2.61 2.21 2.5 4.07-.12 1.88-1.35 3.12-3.07 3.64-1.6.47-3.31.62-4.97.93-1.93.37-3.88.65-5.77 1.19a8.6 8.6 0 0 0-2.93 1.59 3.9 3.9 0 0 0-1.36 4.17 3.77 3.77 0 0 0 3.18 3c1.37.22 2.8.17 4.2.07 7.98-.53 15.97-1.2 23.97-1.65 9.84-.57 19.7-.34 29.52.3 13.88.9 27.7 2.5 41.42 5.03 4.55.84 9.17 1.33 13.74 2.15 5.66 1 10.56-.63 15-4a44.78 44.78 0 0 0 12.42-14.73c7-13.04 10.65-26.87 9.28-41.79-.1-1.12-.4-2.3.9-2.96 1.07-.54 2.16-.11 3.18 1.32.65.9 1.16 1.93 1.82 2.83.58.79 1.2 1.6 1.96 2.18a4.1 4.1 0 0 0 4.39.48c1.67-.77 2.64-2.24 2.44-4.07-.17-1.5-.58-3.06-1.24-4.4a40.51 40.51 0 0 0-22.43-20.61 37.97 37.97 0 0 0-17.4-2.32c-1.92.18-3.86.8-5.63 1.6a4.37 4.37 0 0 0-2.67 4.8 4.73 4.73 0 0 0 4.02 3.81c1.37.24 2.8.07 4.2.24 1.37.17 2.76.42 4.08.83 1.06.34 1.38 1.33 1.05 2.42-.42 1.38-1.09 2.6-2.39 3.34-1.22.7-2.46 1.38-3.72 1.97-14.57 6.77-29.8 10.94-45.88 11.83-1.68.1-3.38.15-5.06.05-8.14-.47-16.28-1-24.42-1.53-.97-.06-1.95-.27-2.9-.49-11.93-2.71-24.01-4.59-36.11-6.35-5.14-.75-10.27-1.6-15.4-2.43-3.45-.56-5.07-2.84-4.31-6.37.99-4.67 2.09-9.32 3.26-13.95a907 907 0 0 1 4.77-17.91c1.1-4 3.5-6 7.5-6.1 4.52-.1 8.95-.72 13.35-1.72.68-.15 1.37-.34 2.07-.34 1.72 0 2.93 1.4 2.49 3.07a37.23 37.23 0 0 0-1.3 10c.07 5.99 2 11.35 5.65 16.01 7.4 9.43 17.06 14.98 29.04 16.06 10.98 1 21.21-1.72 30.78-7.05a16.95 16.95 0 0 0 3.7-2.77 4.33 4.33 0 0 0 .55-5.77c-1.2-1.73-3.45-2.33-5.66-1.41-.9.37-1.73.93-2.59 1.41-4.73 2.63-9.86 4-15.19 4.8-3.54.52-7-.26-10.48-.71a39.78 39.78 0 0 1-12.13-3.38c-3.73-1.78-7.06-4.09-9.52-7.48-4.08-5.6-4.71-11.59-1.8-17.9 1.95-4.19 5.01-7.44 8.74-10.08 7.2-5.11 15.33-7.52 24.1-7.9 3.52-.15 6.98-.01 10.34 1.38a14.8 14.8 0 0 1 6.56 5.04 48.26 48.26 0 0 0 22.95 17.2c28.8 10.37 57.94-6.57 65.72-33.92.84-2.96 1.3-6.04 1.72-9.1.63-4.64 4.06-7.5 8.78-6.93 2.37.28 4.7.87 7.03 1.35l52 10.7c3.86.8 7.72 1.53 11.55 2.4 3.09.7 4.52 2.77 3.95 5.85-.57 3.03-1.4 6.02-2.14 9.02a675.58 675.58 0 0 0-11.65 57.4c-1.78 11.39-3.34 22.8-5.02 34.2-.54 3.62-1.02 7.24-1.75 10.82-1.03 5.1-4.13 8.86-8.28 11.77-.98.7-2.34.9-3.55 1.23-2.16.6-4.36 1.1-6.52 1.71-5.65 1.63-9.9 5.97-10.23 12.9a29.4 29.4 0 0 0 2.36 13.58c.78 1.78 1.38 3.7 1.7 5.61a5.42 5.42 0 0 1-3.27 6.23 34.2 34.2 0 0 1-6.71 2.4c-9.33 2.03-18.7 3.92-28.06 5.82l-45.86 9.28c-.69.14-1.38.27-2.05.48-3.01.9-3.58 1.49-3.65 4.78-.18 8.16-.37 16.31-.3 24.47a14059.65 14059.65 0 0 0 1.66 120.64c.3 16.17.74 32.34 1.1 48.5.15 6.76.27 13.5.4 20.25l1.04 57.8c.28 16.02.52 32.05.8 48.08.28 16.87.57 33.74.89 50.62.07 3.8.22 7.59.34 11.38.03.7.07 1.4.18 2.1.52 3.4 1.74 4.48 5.35 4.63 1.97.07 3.94.05 5.9.05 13.93.04 27.86.15 41.78.03 4-.03 7.08 1.52 9.7 4.25.85.88 1.5 2.03 2 3.17.7 1.57.12 2.8-1.56 3.23a85.52 85.52 0 0 1-7.02 1.39 148.71 148.71 0 0 1-31.11 1.72c-30.1-1.49-57.72-10.16-81.94-28.53-8-6.08-14.91-13.23-21.19-21.06-7.25-9.06-12.91-19.1-18.44-29.21-16.11-29.49-28.29-60.6-37.81-92.76a623.06 623.06 0 0 1-16.3-70.61 677.57 677.57 0 0 1-5.53-38.82c-.9-7.81-1.4-15.67-2.1-23.51-1.6-17.95-1.9-35.94-2.26-55.64"/><path fill="#2e2e28" d="M501.89 647.65c39.9.86 73.31 16 100.05 45.73 9.1 10.12 16.13 21.58 21.7 34 2.94 6.54 4.02 13.43 4.14 20.5.16 9.56-.02 19.12.24 28.68.25 9.13.9 18.25 1.3 27.37.17 3.93.37 7.89.13 11.8a30.7 30.7 0 0 1-1.67 7.8c-7.53 22.34-20.25 41.25-37.81 56.96-18.94 16.95-40.98 27.46-65.99 31.7a131.24 131.24 0 0 1-41.97.35c-31.2-4.75-57.55-18.63-78.86-41.84-17.56-19.13-28.32-41.73-32.86-67.27a128.3 128.3 0 0 1-1.74-30.25c.59-9.56 2-19 4.63-28.23 1.26-4.4 4.24-6.8 8.87-6.84 2.98-.02 5.9-.33 8.78-.95 3.77-.82 7.22-2.32 10.08-5 3-2.8 4.9-6.12 4.95-10.34 0-.42.04-.84.02-1.27-.16-3.23 1-5.6 3.94-7.31 3.22-1.88 5.52-4.83 7.12-8.16 1.45-3 3.63-4.8 6.73-5.92 2.37-.84 4.58-2.14 6.77-3.4 4.07-2.32 6.57-6.1 8.74-10.06 1.33-2.43 1.08-5.21.68-7.86a33.37 33.37 0 0 0-1.6-6.97c-1.35-3.51.12-6.03 2.44-8.28.98-.94 2.32-1.56 3.57-2.16a123.8 123.8 0 0 1 29.94-9.91c9.1-1.8 18.3-3.01 27.68-2.87"/><path fill="#050705" d="M571.93 779.57c.42 32.45-20.16 59.02-47.13 68.6a72.29 72.29 0 0 1-73.68-15.78c-11.42-10.8-18.75-23.95-21.21-39.4-3.84-24.08 2.71-45.04 20.34-62.28 5.98-5.83 12.53-10.84 20.11-14.45a72.44 72.44 0 0 1 23.83-6.6c34.9-3.65 68.23 19.01 76.44 56.4a54.95 54.95 0 0 1 1.3 13.5"/><path fill="#ca1e26" d="M506.58 719.4c19.14-.29 41.8 15.73 50.73 36.19 3.65 8.36 5.83 17.12 5.4 26.2-1.08 22.57-11.23 39.98-30.85 51.48a57.99 57.99 0 0 1-30.58 8.15c-19.79-.3-35.92-8.22-47.94-24.02-9.5-12.5-13.45-26.8-12.17-42.37 1.16-14.17 6.86-26.55 16.2-37.24 2.97-3.41 6.61-6.1 10.42-8.5 10.09-6.41 21.1-9.76 38.8-9.89"/><path fill="#050705" d="M543.46 780.5a42.46 42.46 0 0 1-27.76 39.93 42.67 42.67 0 0 1-43.49-9.08c-6.83-6.4-11.21-14.2-12.67-23.41-2.26-14.2 1.62-26.56 12.02-36.72a43.9 43.9 0 0 1 12.77-8.93 41.99 41.99 0 0 1 13.4-3.49 40.28 40.28 0 0 1 27.35 7.04c9.82 6.78 15.7 16.21 17.7 28 .38 2.2.46 4.44.68 6.66"/><path fill="#f8f5e6" d="M504.24 741.34c12.75-.18 27.28 10.03 33.03 23.2 2.34 5.36 3.73 10.98 3.44 16.8-.7 14.33-7.12 25.44-19.55 32.82a37.22 37.22 0 0 1-19.83 5.33c-12.56-.2-22.85-5.2-30.53-15.2-6.2-8.06-8.77-17.28-7.94-27.36.75-9.07 4.41-17 10.4-23.84a30.01 30.01 0 0 1 6.68-5.45c6.47-4.09 13.52-6.24 24.3-6.3"/><path fill="#ba7d45" d="M855.44 334.7c6.61-.2 13.7.89 20.77 2.1 1.64.28 3.36.48 5.01.35 3.86-.31 5.92-3.44 4.91-7.2a7.83 7.83 0 0 0-4.73-5.57c-1.43-.58-2.92-1-4.36-1.55-1.44-.55-2.9-1.07-4.27-1.78a13.37 13.37 0 0 1-7.16-8.91c-1.59-6.39-4.57-12.06-8.45-17.32a54.14 54.14 0 0 1-3.6-5.69 20.9 20.9 0 0 1-1.8-4.26c-2.09-7.1 2.26-13.49 9.61-14.17 2.99-.28 5.92.2 8.74 1.1 8.8 2.81 15.67 8.06 19.9 16.45 1.51 3.01 2.92 6.08 4.45 9.09 2.7 5.32 6.02 10.18 10.94 13.71a24.8 24.8 0 0 0 4.7 2.77c1.24.53 2.7.66 4.08.72 1.36.05 2.4-.69 2.95-2 .56-1.32.29-2.69-.9-3.83-.6-.57-1.39-.95-2-1.52-2.07-1.9-4.14-3.8-6.11-5.78a9.11 9.11 0 0 1-1.6-2.46c-1.39-2.87-.52-5.68 2.25-7.18 6.42-3.45 13.28-5.43 20.58-5.47 5.88-.03 8.17 2.52 6.27 8.23-.84 2.53-1.92 4.98-2.86 7.48-1.84 4.91-3 9.94-2.78 15.24.13 2.87.85 5.55 2.1 8.1 3.3 6.68 10.12 9.47 17.31 8.43.8-.12 1.61-.5 2.32-.94 1.33-.82 1.83-2.09 1.54-3.63-.27-1.42-1.27-2.17-2.6-2.42-1.5-.3-3.09-.29-4.57-.66-2.9-.74-4.35-3.2-3.85-6.1a4.5 4.5 0 0 1 2.04-3.05c6.86-4.63 14.37-6.32 22.49-4.65 2.01.41 4.01 1.37 5.76 2.48 4.35 2.76 6.18 7.88 4.95 12.87a16.84 16.84 0 0 1-4.3 7.62 23.97 23.97 0 0 1-8.29 5.68c-1.17.48-2.35.92-3.56 1.32a56.04 56.04 0 0 0-17.38 9.28c-4.08 3.22-8.62 3.13-12.77-.02a22.9 22.9 0 0 1-2.26-1.9c-2.14-2.1-4.76-2.28-7.48-1.8a5.56 5.56 0 0 0-4.76 4.74c-.55 2.88-.08 5.6 1.97 7.88.38.42.78.81 1.17 1.22 13.85 14.08 22.71 30.94 27.8 49.89 3.2 11.9 4.34 24.05 4.08 36.33a110.84 110.84 0 0 1-4.84 29.44c-1.93 6.46-3.98 12.89-5.98 19.32-.21.68-.48 1.33-.66 2-1.37 5.1-5.53 7.76-11 6.52-3.7-.84-7.42-1.56-11.14-2.32l-61.92-12.59c-1.1-.22-2.19-.55-3.3-.67-3.85-.44-6.88-2.32-9.37-5.17a69.12 69.12 0 0 1-3.4-4.29c-6.26-8.45-14.1-14.78-24.04-18.5-21.46-8.03-43.1-.1-55.63 14.3-.93 1.06-1.74 2.23-2.72 3.23-2.1 2.13-4.44 3.17-7.59 2.25a46.34 46.34 0 0 0-16.25-1.87c-.56.04-1.13.06-1.69.03-2.88-.1-5.17-1.18-6.42-3.96-.28-.64-.63-1.25-.95-1.87a50.53 50.53 0 0 0-10.11-13.41c-.72-.68-1.47-1.32-2.16-2.02-.97-.99-1.38-2.2-.72-3.46 2.02-3.86 4.05-7.7 6.21-11.49.83-1.45 2.1-1.86 3.63-1.23 1.4.59 2.72 1.43 3.95 2.34 1.68 1.26 3.2 2.74 4.87 4.03 5.02 3.9 10.84 2.51 14.48-1.24a14 14 0 0 0 3.98-8.2c.28-2.35.2-4.77.04-7.15a6.91 6.91 0 0 0-3.47-5.5 4.55 4.55 0 0 0-7.04 3.23c-.2 1.24-.05 2.53-.2 3.78-.4 3.19-2.85 4.24-5.45 2.35-.9-.66-1.67-1.51-2.57-2.19-2.36-1.78-2.77-4.21-1.98-6.8a22.69 22.69 0 0 1 2.46-5.32c7.92-12.8 16.08-25.5 25.77-37.02 17.84-21.2 39.52-37 66.36-45.1 9.26-2.78 21.64-4.9 32.6-4.67"/><path fill="#ca1e26" d="M991.3 891.17c1.5.63 2.41.93 3.24 1.36 11.03 5.74 21.91 5.1 32.64-.81 1.84-1.01 3.54-2.28 5.3-3.44a7.65 7.65 0 0 1 6.38-1.21c3.41.82 6.87 1.3 10.44.69a24.07 24.07 0 0 0 8.32-2.83 10.6 10.6 0 0 1 5.15-1.63c4.59-.15 8.81-1.62 12.77-3.9.97-.56 1.89-1.23 2.9-1.72 2.34-1.13 4.19-.08 4.45 2.52.2 2.1.38 4.2.49 6.3.36 7.45.68 14.9 1.04 22.33.49 9.97 1 19.94 1.5 29.9.3 6.05.6 12.08.87 18.12.4 8.43.71 16.86 1.16 25.28.69 12.91 1.55 25.82 2.16 38.74.31 6.86 1.07 13.74.38 20.64a32.16 32.16 0 0 1-1.47 7.41 4488.1 4488.1 0 0 1-8.6 24.69 34.4 34.4 0 0 1-1.86 4.24 14.85 14.85 0 0 1-11.52 8.26c-6.4.96-12.82 1.7-19.22 2.61-8.76 1.24-17.52 2.54-26.27 3.85-5.28.79-10.55 1.63-15.82 2.48-3.03.5-5.54-.67-7.75-2.5a4.41 4.41 0 0 1-1.27-2.54c-.25-1.51-.2-3.08-.23-4.63-.4-16.58-.74-33.17-1.2-49.76-.51-18.55-1.13-37.1-1.7-55.65-.28-9.27-.57-18.55-.83-27.83-.3-10.68-.56-21.36-.86-32.04-.23-8.01-.5-16.02-.73-24.03-.03-1.38.07-2.77.13-4.9m44.93 248.67c.05 12.48-1.74 24.64-6.42 36.3-1.52 3.78-2.86 7.63-4.48 11.37-1.6 3.74-1.9 7.55-1.52 11.54a71.64 71.64 0 0 1-5.07 34.3c-10.32 25.44-28.85 42.08-55 50.2-4.41 1.37-9 2.27-13.55 3.06a41.45 41.45 0 0 1-19.61-1.15 81.84 81.84 0 0 1-23.41-11.39 25.76 25.76 0 0 1-3.27-2.65c-13.19-13.17-18.7-29.12-16.87-47.56 1.1-11.03 5.1-21 12.18-29.61 7.11-8.65 16-14.48 27.12-16.58 11.05-2.08 21.27.22 30.6 6.3a52.92 52.92 0 0 1 16.12 16.43c1.19 1.9 2.27 3.9 3.55 5.74.7 1 1.63 1.94 2.65 2.61 1.22.8 3.13-.02 3.34-1.45.2-1.35.28-2.88-.17-4.13a76.45 76.45 0 0 0-3.95-9.28 45.14 45.14 0 0 0-4.57-7.08 7.18 7.18 0 0 1 2.63-11.02c1.03-.45 2.03-.96 3.02-1.5 14.64-8.08 24.09-20.12 27.12-36.66 1.7-9.29 1-18.5-3.5-27.11-.51-1-.78-2.1-1.26-3.12-.68-1.45.08-3.38 1.6-4.38a6.66 6.66 0 0 1 5.26-.95 78.55 78.55 0 0 1 15.98 5.28c1.87.86 3.12 2.36 4.22 4a43.5 43.5 0 0 1 7.24 21.74c.15 2.25.02 4.5.02 6.75M807.16 994.77c-.34-28.23-.63-53.97-.97-79.7-.08-5.9-.31-11.8-.45-17.7-.02-1.12-.04-2.26.12-3.37.24-1.59 1.84-2.29 3.21-1.38.93.6 1.74 1.4 2.54 2.2 4.82 4.72 9.6 9.48 14.44 14.2 6.64 6.48 13.3 12.93 19.97 19.4.5.48 1.03.94 1.53 1.43 2.14 2.11 4.63 2.88 7.67 2.64 10.23-.8 20.47-1.39 30.7-2.13 4.06-.3 8.1-.82 12.17-1.16 1.39-.11 2.8 0 4.2.12 2.2.2 3.56 1.54 4.2 3.6.29.94.51 1.9.64 2.87 1.43 11.3 2.6 22.62 3.03 34a13 13 0 0 1-1.15 6.16 5.1 5.1 0 0 1-3.78 3.05c-1.94.34-3.9.62-5.85.7-12.08.57-24.16 1.28-36.24 1.55-12.79.3-25.59.19-38.38.18-2.24 0-4.48-.38-6.72-.54a46 46 0 0 0-4.64-.17c-1.6.05-2.8.91-2.92 2.5a74.64 74.64 0 0 0-.08 9.67c.06.92 1.07 1.93 1.87 2.64.82.73 1.9 1.18 2.9 1.7 12.17 6.15 24.36 12.25 36.48 18.48a17.03 17.03 0 0 0 10.2 1.78c5.85-.72 11.7-1.47 17.57-2.1 4.6-.5 9.23-.88 13.85-1.29 2.38-.2 4.76-.39 7.14-.56 1.12-.08 2.25-.2 3.37-.17 3.56.1 5.9 2.35 5.77 5.85-.34 8.5-1.77 16.69-6.5 24.1a103.45 103.45 0 0 1-19.24 22.25c-10.23 8.98-21.56 16.27-34.16 21.39a125.65 125.65 0 0 1-32.16 8.27c-1.5.18-3.12.1-4.58-.28a4.85 4.85 0 0 1-3.93-4.85l-.03-2.1c-.33-20.67-.62-41.34-1-62-.2-11.25-.57-22.5-.8-31.23m156.28-172.42c-1.38.66-2.3 1-3.12 1.5a4.05 4.05 0 0 0-1.44 5.18c.8 1.73 3.15 2.54 5.08 1.71a3.2 3.2 0 0 0 2.06-2.48c.17-1.1.23-2.2.35-3.32 3.92.77 4.84 1.67 4.95 5.05.21 6.05.36 12.1.48 18.14.02 1.4-.12 2.81-.33 4.2-.46 3.17-1.62 4.44-4.82 4.93-3.05.47-6.14.7-9.22 1.05l-20.53 2.27c-6.14.68-12.3 1.34-18.44 2.03a4410 4410 0 0 0-36.43 4.21 8981.98 8981.98 0 0 0-42.27 5.09c-3.35.4-6.7.85-10.04 1.24-1.82.2-3.64.35-5.46.5a5.47 5.47 0 0 1-5.78-3.38c-.82-1.75-1.24-3.7-1.74-5.6-.18-.66-.1-1.4-.12-2.1-.31-13.92-.64-27.84-.91-41.75-.36-18.14-.66-36.28-1.04-54.42-.2-9.7-.53-19.4-.78-29.1-.04-1.69-.05-3.38.1-5.06.51-5.71 3.38-8.92 9.04-10.1 7.16-1.46 14.33-2.86 21.5-4.3 28.64-5.78 57.3-11.53 85.93-17.34 9.64-1.96 19.25-4.07 28.87-6.1.96-.2 1.93-.37 2.91-.49 3.17-.36 5.4 1.45 5.8 4.66.06.56.04 1.12.06 1.68.28 13.5.55 27 .86 40.5.26 11.39.56 22.77.84 34.16.03 1.27.02 2.53-.03 3.8a4.26 4.26 0 0 1-1.66 3.28c-.91.7-2 1.13-3.15.66-1.09-.43-1.2-1.47-1.25-2.47-.1-2.4-.09-4.79-.24-7.17-.99-15.49-6.1-29.4-16.39-41.14-10.14-11.58-22.93-18.45-38.27-20.13a61.44 61.44 0 0 0-28.21 3.6c-17 6.27-30 17.46-39.69 32.6-7.47 11.69-11.74 24.52-13.27 38.3-1.6 14.33.42 28.04 6.8 41.01 8.1 16.45 20.96 27.29 38.72 31.99 14.9 3.94 29.33 1.95 43.14-4.47 15.4-7.17 27.02-18.52 35.64-33.05.5-.85 1.01-1.7 1.46-2.57.92-1.84 2.55-2.82 5.33-1.14.83.5 1.51 1.25 2.24 1.91.7.66 1.38 1.36 2.47 2.43"/><path fill="#ca1e26" d="M984.13 898.38c.17 3.36.36 6.73.51 10.1.05 1.12.04 2.24.01 3.37a5.58 5.58 0 0 1-3.98 5.4c-1.43.5-2.98.85-4.5.95-11.07.73-22.15 1.4-33.23 2-1.64.09-3.36-.2-4.97-.6-2.41-.58-4.13-2.22-5.67-4.14-5.3-6.56-10.66-13.06-16.02-19.58-1.33-1.62-2.67-3.26-4.09-4.81a9.73 9.73 0 0 0-12.62-1.73c-1.3.8-1.81 2.13-1.54 3.65.17.97.51 1.9.75 2.85 1.56 6.26 3.16 12.52 4.64 18.8.35 1.49.48 3.07.4 4.6-.16 3.22-1.84 4.82-5.02 5-5.9.31-11.8.54-17.68.91-5.75.37-11.48.86-17.23 1.3-3.22.25-6.42.58-9.6-.51a18.84 18.84 0 0 1-7.5-4.47c-8.53-8.56-17.12-17.06-25.67-25.6a13.85 13.85 0 0 1-2.13-2.59c-.8-1.33-.13-2.87 1.37-3.36.8-.26 1.63-.46 2.46-.55 5.87-.64 11.73-1.23 17.6-1.85 6.84-.73 13.68-1.48 20.52-2.23 6.14-.66 12.28-1.32 18.42-2.01 6.42-.72 12.83-1.48 19.25-2.22l17.57-2.04 17.15-2 18.83-2.22c6-.7 11.98-1.46 17.99-2.1 2.22-.23 4.49-.37 6.71-.24a5.21 5.21 0 0 1 5 3.83c1.12 3.35 2.01 6.73 2.06 10.28.04 3.93 0 7.87 0 11.8h.2M663.7 1184.14c0-5.2-.01-10.4.01-15.6.04-9.17-.8-18.26-1.97-27.34-.18-1.39-.4-2.78-.56-4.18a93.02 93.02 0 0 0-13.48-38.73 68.38 68.38 0 0 0-32.11-27.6 10 10 0 0 1-2.53-1.46c-1.15-.98-.93-2.95.44-3.55 1.14-.5 2.4-.8 3.63-.97 9.5-1.36 18.5.38 27.03 4.57 10.25 5.03 18.15 12.69 24.29 22.23a73.14 73.14 0 0 1 7.2 14.3c3.95 10.73 7.01 21.69 7.55 33.19a92.03 92.03 0 0 1-4.21 32.03c-1.26 4.02-2.51 8.05-3.75 12.08a7.7 7.7 0 0 0-.3 1.66c-.22 2.9 1.5 4.93 4.38 5.05 1.26.04 2.52-.18 3.78-.31a6.83 6.83 0 0 1 6.35 2.58c.89 1.09 1.77 2.2 2.53 3.37 11.01 17.2 16.61 35.89 15.23 56.42a55.47 55.47 0 0 1-4.34 18.4 22.28 22.28 0 0 1-3.51 5.7c-2.45 2.81-5.53 2.57-7.92-.29a8.44 8.44 0 0 1-.5-.68c-5.93-8.74-11.5-17.65-15.51-27.5-4.58-11.25-8.3-22.73-10.1-34.76-.7-4.57-1.03-9.22-1.3-13.84-.27-4.92-.28-9.84-.4-14.77h.08m350.82-441.9c.58 3.86-1.82 8.08-5.1 11.9a39.13 39.13 0 0 1-5.09 5.03c-4.27 3.44-5.76 7.79-4.77 13.08.46 2.45-.15 4.74-1.03 6.98a9.13 9.13 0 0 1-4.37 4.93c-3.5 1.82-6.18.36-6.36-3.59-.3-6.87-.54-13.75-.75-20.62-.38-12.49-.67-24.98-1.1-37.47-.34-10.24-.82-20.48-1.23-30.71a28.44 28.44 0 0 1 0-3.37c.11-1.44.98-2.22 2.45-2.43a7.1 7.1 0 0 1 4.85 1.07 345.5 345.5 0 0 1 11.2 7.46 10.35 10.35 0 0 1 4.16 6.15c1.47 5.7 3.04 11.39 4.3 17.13 1.67 7.56 2.1 15.28 2.84 24.46m-82.49 271.86c-.8 1.03-1.15 1.63-1.63 2.1a6.87 6.87 0 0 0-1.92 4.13c-.9 6.68-1.82 13.36-2.6 20.05-1.3 11.02-2.5 22.05-3.76 33.07-.04.42-.2.83-.22 1.24a3.3 3.3 0 0 0 2.57 3.4c.4.09.84.11 1.25.11 6.34.04 12.64-.54 18.9-1.38 3.53-.47 4.35-1.28 4.84-4.75.57-4.03.85-8.1 1.15-12.16.82-11.07 1.6-22.14 2.37-33.21.18-2.52.17-5.06.36-7.58.09-1.24.34-2.5.65-3.71.33-1.33 1.36-2.1 2.55-2.63 2.08-.92 4.19.27 4.2 2.52.02 1.8-.15 3.66-.5 5.44a189.95 189.95 0 0 0-2.95 25.51c-.46 8.28-.43 16.57 1.56 24.73 1.21 4.98-.36 8.28-4.86 10.92-5.63 3.3-11.8 5.19-18.07 6.82-5.2 1.35-10.45 2.2-15.84 1.88-.55-.04-1.12 0-1.68-.05-3.57-.3-5.18-2.52-4.37-6.03 1.1-4.79 2.31-9.55 3.29-14.36a319.95 319.95 0 0 0 4.75-30.37c.7-6.7 1.25-13.42 1.88-20.13.08-.84.16-1.68.28-2.51.49-3.3 2.2-4.6 5.52-4.11.62.09 1.2.54 2.28 1.05"/><path fill="#ca1e26" d="M935.38 936.7c-1.8-1.96-3.17-3.56-4.65-5.03a10.87 10.87 0 0 0-2.7-1.92c-.88-.45-2.15.3-2.27 1.27a16.4 16.4 0 0 0-.1 3.36c.43 5.74 1.05 11.48 1.33 17.23.37 7.58.49 15.18.66 22.77.02.77-.33 1.56-.47 2.23-1.23.32-1.94-.1-2.21-1-.24-.8-.3-1.65-.36-2.48-.62-9.26-1-18.54-1.9-27.76-1.1-11.33-2.69-22.6-5.37-33.7a27.79 27.79 0 0 1-.76-4.13c-.05-.58.43-1.2.63-1.72 1.77.03 2.39 1.27 3.2 2.19 3.97 4.55 7.91 9.14 11.87 13.7.65.75 1.32 1.48 1.94 2.24a4.26 4.26 0 0 0 3.68 1.66c5.62-.25 11.24-.42 16.85-.73 5.05-.28 10.1-.69 15.14-1.06 1.96-.15 3.91-.38 5.88-.52 1.11-.07 2.25-.12 3.35-.02 3.23.33 5.1 2.24 5.69 5.34.37 1.93.63 3.9.7 5.86.38 10.4.69 20.8 1 31.2.03 1.12-.02 2.25-.12 3.36-.06.76-.52 1.39-1.28 1.45-.8.06-1.26-.56-1.34-1.33-.31-2.93-.62-5.87-.87-8.8-.64-7.57-1.1-15.15-1.92-22.7-.7-6.36-1.18-6.32-6.52-7.7-3.8-.98-7.67-1.74-11.52-2.5a12.07 12.07 0 0 0-3.36-.15c-1.92.17-3.05 1.44-3.16 3.32v.42c.3 5.2.59 10.38.91 15.57.47 7.58.97 15.15 1.44 22.73.05.84.06 1.68.02 2.53-.04.9-.4 1.64-1.37 1.88-.93.24-2.15-.28-2.46-1.17a11.7 11.7 0 0 1-.63-2.86c-.38-4.2-.63-8.4-1.03-12.6-.53-5.6-1.12-11.19-1.74-16.77a17.63 17.63 0 0 0-2.25-7.2c-1.43-2.38-2.77-2.74-5.24-1.35-1.47.83-2.84 1.84-4.3 2.67-1.32.75-2.71 1.38-4.4 2.21"/><path fill="#ba7d45" d="m738.88 522.98-8.76 1.04c-.83.09-1.68.23-2.51.18-1.97-.1-3.07-1.63-2.54-3.47.28-.94.7-1.84 1.1-2.73a51.73 51.73 0 0 0 4.32-17.9c.19-3.61 1.2-4.58 4.7-5.3 3.67-.76 7.28-.32 10.87.36 2.35.45 3.16 1.82 2.87 4.3-.2 1.67-.36 3.34-.62 5a31.24 31.24 0 0 0-.03 9.24c.22 1.52.34 3.08.3 4.61-.1 3.1-1.97 4.9-5.04 5-1.55.03-3.1 0-4.63 0l-.03-.33"/><path fill="#f8f5e6" d="M609.07 618.9c-1.36-.07-2.91-.05-4.44-.23-2.25-.25-3.15-1.92-2.22-3.92.24-.5.55-.98.86-1.45 3.3-4.9 6.57-9.81 9.93-14.67 2.12-3.07 5.04-4.3 8.78-3.54 3.58.73 7.2 1.25 10.77 2.05 2.05.47 2.8 2.37 1.93 4.3-.23.5-.55.98-.89 1.42-.42.56-.9 1.07-1.36 1.6-2.27 2.69-4.73 5.24-6.77 8.09-3.68 5.14-8.78 6.68-14.72 6.5-.56-.01-1.12-.09-1.87-.16"/><path fill="#ca1e26" d="M949.36 991.45c.25-.3.4-.66.59-.68 4.3-.47 8.55-1.49 13.14-1.26 1.11 5.05 5.04 7.45 9.17 9.63a29.4 29.4 0 0 0 9.52 3.21 10 10 0 0 1 3.46 1.32c1.03.61 1.23 1.89.8 2.99-.47 1.18-1.29 1.68-2.66 1.53-3.75-.43-7.5-1.1-11.27-1.3-11.08-.62-22.16-.22-33.23.53-2.66.19-5.33.2-7.99.27-.84.02-1.72.07-2.51-.14a5.12 5.12 0 0 1-2.18-1.15c-1.68-1.61-1.9-6.59-.34-8.29.38-.42 1.27-.63 1.87-.55.8.11 1.57.58 2.32.94 1.53.72 3.07 1.4 4.54 2.21 4.07 2.25 8.46 2.9 13.02 2.68 3.21-.15 6.43-.4 9.63-.78 1.34-.15 2.99-.24 3.47-1.9.49-1.67-.9-2.53-1.98-3.37-2.66-2.05-5.25-4.24-8.64-5.08-.3-.08-.5-.55-.73-.81m-381-393.55c.1 1.55.24 3.09.28 4.63.1 3.27-.9 6.13-3.43 8.27a53.04 53.04 0 0 1-5.37 4.06 7.16 7.16 0 0 1-8.28-.5c-1.7-1.47-3.24-3.12-4.81-4.72-1.1-1.12-1.29-2.46-.69-3.89a33 33 0 0 1 1.09-2.29 9.34 9.34 0 0 0 .62-7.75c-1.04-2.81-.33-4.94 2.2-6.5 1.95-1.2 3.4-2.87 4.72-4.73 1.74-2.43 2.45-2.57 5.38-1.6.93.3 1.86.64 2.76 1.04 3.87 1.7 5.87 4.62 5.74 8.93-.05 1.68 0 3.37 0 5.05zm257.82 398.97c.07-.15.12-.36.21-.38 3.5-.67 6.91-.8 10 1.38 1.61 1.13 3.2 2.31 4.86 3.34 8.02 4.98 16.71 7.23 26.12 6.13 2.33-.27 4.62-1.1 6.85-1.89 1.48-.52 1.6-1.94.38-2.97-.96-.8-2.07-1.44-3-2.28-.33-.3-.55-1.08-.4-1.47.15-.39.81-.73 1.3-.8a5.4 5.4 0 0 1 4.33 1.1 79.98 79.98 0 0 0 5.16 3.63 10.6 10.6 0 0 0 6.37 1.9c6.16-.34 12.3-.9 18.46-1.36.27-.03.55-.11.82-.2 1.28-.39 1.68-1.7.74-2.58-.7-.67-1.54-1.22-2.27-1.87-.4-.34-.72-.78-1.15-1.26.8-1.36 1.92-1.7 3.24-1.61 1.24.09 2.21.87 2.22 2.1a60.3 60.3 0 0 1-.33 7.12c-.2 1.7-1.35 2.66-3.16 2.83-5.58.52-11.17 1.04-16.75 1.67-8.08.9-16.18 1.68-24.22 2.94-4.94.78-9.49.16-13.9-1.92-3.94-1.85-7.8-3.84-11.7-5.77-3.9-1.92-7.82-3.83-11.7-5.79-.96-.48-2.16-.72-2.48-2"/><path fill="#f8f5e6" d="M582.79 617.32c-1.1-.31-1.93-.46-2.68-.79-1.36-.58-1.9-1.6-1.58-3.05.32-1.5.73-3 1.2-4.47a37.3 37.3 0 0 0 2-14.1 8.13 8.13 0 0 1 .11-2.09c.63-2.93 2.5-4.23 5.48-3.77 3.33.52 6.65 1.1 9.97 1.7.82.14 1.66.32 2.43.64a3.21 3.21 0 0 1 1.78 4.18c-.3.77-.79 1.48-1.28 2.16-3.64 5-7.26 10-10.98 14.94a18.5 18.5 0 0 1-3.57 3.5c-.84.64-2.02.83-2.88 1.15"/><path fill="#ca1e26" d="M1076.89 748.63c0 .89.1 2.58-.02 4.25-.16 2.28-1.92 3.08-3.85 1.8-2.68-1.8-5.38-3.57-7.96-5.5a10.47 10.47 0 0 1-2.83-3.05c-2-3.48-2.92-7.27-2.44-11.32.3-2.6 2.02-3.86 4.42-2.84a96.9 96.9 0 0 1 9.75 4.92c1.67.94 2.38 2.73 2.52 4.64.16 2.1.25 4.2.4 7.1"/><path fill="#f8f5e6" d="M643.41 620.22c-3.86-.07-5.25-2.37-3.54-4.84 2.48-3.58 5.04-7.13 7.84-10.45 2.82-3.33 9.81-4.43 13.74-2.52 1.28.62 1.9 1.77 1.43 3.12a8.94 8.94 0 0 1-1.58 2.92c-2.39 2.76-4.9 5.43-7.36 8.13a7.33 7.33 0 0 1-3.88 2.42c-2.47.52-4.96.91-6.65 1.22m32.79 1.39c-.29-.03-1.54-.23-2.8-.3-2.07-.13-4.01-3.03-2.5-5.13a78.6 78.6 0 0 1 7.32-8.67c1.26-1.31 3.19-1.78 5.1-1.54 1.95.24 3.91.49 5.83.92 1.06.24 2.16.7 3.01 1.36 2.05 1.59 2.25 3.51.48 5.44-1.8 1.96-3.64 3.97-5.8 5.48-2.83 1.97-6.21 2.53-10.64 2.44m39.53 2.7a3653 3653 0 0 1-9.2-.84c-.4-.04-.83-.1-1.23-.2-2.14-.57-3.14-2.75-1.88-4.58 1.34-1.95 2.75-3.96 4.54-5.46 2.85-2.37 6.18-3.2 9.75-1.36 1 .5 2.11.84 3 1.49 1 .71 2 1.56 2.68 2.57 1.32 1.95 1.08 3.65-.65 5.26-1.97 1.82-4.08 3.46-7.01 3.12"/><path fill="#ca1e26" d="M990.84 858c-.37-1.37-.72-2.13-.75-2.9-.23-6.86-.41-13.72-.61-20.6-.01-.27.01-.55.05-.83.24-1.74 1.99-2.6 3.45-1.6 1.97 1.35 3.13 3.25 2.93 5.7-.21 2.5-.44 5.04-.94 7.5-.72 3.42-1.67 6.8-2.6 10.16-.21.74-.8 1.37-1.53 2.58m-2.43 170.06c0 2.96.04 5.91-.02 8.86-.03 1.82-.78 2.8-1.93 2.76-1-.03-1.72-.8-2.03-2.32-.16-.82-.3-1.67-.32-2.5-.1-5.07-.2-10.13-.18-15.19 0-1.23.42-2.48.83-3.65.14-.4.85-.84 1.3-.85.46-.01 1.16.4 1.33.8.38.88.65 1.86.68 2.81.08 3.1.03 6.19.03 9.28h.3m-5.66-41.14c.32-.26.42-.4.54-.43 2.05-.44 2.7-.33 2.85.52.04.21-.1.6-.29.71-1.1.65-2.07.45-3.1-.8"/><path fill="#f8f5e6" d="M499.5 903.7c-23.14-.61-43.27-5.44-61.66-16.56a97.8 97.8 0 0 1-21.31-17.74c-1.33-1.44-2.51-3.03-3.69-4.6a12.16 12.16 0 0 1-1.46-2.55 3.5 3.5 0 0 1 .96-4.2 3.67 3.67 0 0 1 3.98-.38c.75.33 1.44.9 2 1.5 3.24 3.49 7.32 5.69 11.61 7.48a89.16 89.16 0 0 0 20.62 5.86c1.11.17 2.24.24 3.36.28 1 .03 2.11-.02 2.43-1.19.25-.93-.52-1.52-1.21-2.02-2.29-1.63-4.62-3.2-6.86-4.9a27.7 27.7 0 0 1-3.77-3.35c-1.23-1.34-1.34-2.74-.6-3.85.9-1.31 2.22-1.7 3.7-1.42 2.62.5 5.22 1.08 7.84 1.62.69.14 1.38.28 2.07.36 1.53.16 2.65-.27 2.9-1.14a3.06 3.06 0 0 0-.86-3.1c-.89-.88-1.98-1.55-2.95-2.37-1.71-1.46-3.45-2.9-4.49-4.97-.61-1.23-.5-2.21.37-3.08.86-.88 1.82-1.04 3.06-.38.86.47 1.68 1.03 2.46 1.62a66.38 66.38 0 0 0 28.73 12.42c3.74.68 7.51 1 11.32.74 1.26-.08 2.54-.17 3.78-.03 1.27.13 2.3 1.32 2.5 2.52.26 1.56-.3 2.96-1.7 3.48-1.3.49-2.7.72-4.08.95-2.07.35-4.2.47-6.24.92-1.2.27-2.4.83-3.41 1.54-1.81 1.28-1.66 3.4.27 4.42.98.53 2.07.87 3.13 1.21 3.1 1 6.28 1.52 9.53 1.63 1.6.06 3.01.43 4.05 1.84 1.61 2.2 1.12 4.1-1.43 4.87-.93.28-1.93.39-2.9.4-3.23.06-6.47 0-9.7.06-.96.01-1.96.1-2.89.36-.94.26-1.23 1.8-.48 2.46.62.55 1.32 1.04 2.04 1.45a57.36 57.36 0 0 0 16.61 5.91c1.76.36 3.65.26 5.46.1 3.21-.28 6.4-.8 9.61-1.17 1.25-.14 2.53-.27 3.78-.16a4.91 4.91 0 0 1 4.38 3.94 4.56 4.56 0 0 1-2.4 4.97c-1.2.68-2.57 1.18-3.92 1.44-3.03.58-6.1 1.06-9.16 1.38-5.72.61-11.45 1.08-15.38 1.44m15.43-224.27c1.97 0 3.94.02 5.9 0 .73-.01 1.55-.19 1.6-1.01.04-.6-.34-1.28-.67-1.84-.2-.34-.63-.55-.99-.77-5.3-3.24-10.8-6.06-16.94-7.3-2.88-.58-5.84-.76-8.77-1.11-.56-.07-1.12-.03-1.68-.08-3.66-.36-5.35-4.03-3.24-7.12a8.38 8.38 0 0 1 5.49-3.6c1.92-.36 3.9-.6 5.85-.65 19.78-.5 38.42 4.09 56.08 12.86a109.38 109.38 0 0 1 25.68 17.52 41.56 41.56 0 0 1 3.54 3.6 8.58 8.58 0 0 1 1.96 6.27 2.79 2.79 0 0 1-1.83 2.58c-1.64.71-3.3.67-4.87-.18-1.23-.67-2.38-1.49-3.55-2.26a53.97 53.97 0 0 0-21-8.33c-.69-.11-1.4-.35-2.07-.25-.62.1-1.38.42-1.74.9-.57.78-.11 1.63.53 2.23.72.66 1.55 1.19 2.33 1.8 2.3 1.82 4.66 3.61 6.9 5.51.85.71 1.56 1.64 2.13 2.58.7 1.18.17 2.61-1.07 3.2-1.46.68-2.97.88-4.44.04-1.1-.62-2.15-1.32-3.22-2a31.7 31.7 0 0 0-9.25-3.98c-.94-.23-1.94-.33-2.91-.32-1.34 0-2.06 1.16-1.45 2.34.77 1.5 1.7 2.9 2.5 4.39a51.7 51.7 0 0 1 2.01 4.16c.64 1.49.12 2.77-1.04 3.78-1.13 1-2.4 1.45-3.85.63-.86-.48-1.7-1.01-2.58-1.43-4.43-2.12-8.83-4.31-13.34-6.26-4.67-2.02-9.64-2.98-14.69-3.57-1.11-.13-2.25-.24-3.31-.57-.59-.18-1.3-.7-1.5-1.25-.33-.89.3-1.67 1.09-2.04 1.26-.6 2.56-1.16 3.9-1.52 1.63-.43 3.31-.6 4.96-.95 1.53-.32 2.1-1.64 1.08-2.82a13.52 13.52 0 0 0-3.12-2.76c-2.16-1.3-4.46-2.37-6.7-3.54-.87-.45-1.78-.84-2.6-1.37-1.18-.74-1.72-1.85-1.42-3.25a2.67 2.67 0 0 1 2.34-2.14c1.51-.24 3.07-.28 4.6-.36 1.12-.05 2.25 0 3.37 0v.24m524.57 73.1c7.09.38 13.25.96 19.04 3.4a51.85 51.85 0 0 1 7.8 4.13 14.41 14.41 0 0 1 5.8 7.06c.51 1.34.95 2.72-.39 3.87-1.14.98-2.35.61-3.54.04a44.24 44.24 0 0 0-9.53-3.32c-1.93-.43-3.61 0-5.3.7-1.23.52-2.25 1.34-2.27 2.78-.03 1.62.52 3.1 2 3.94.83.48 1.82.72 2.77.95 9.81 2.32 17.1 8.16 22.85 16.21 5.44 7.62 8.3 16.2 9.92 25.3a77.36 77.36 0 0 1 .87 19.75 51.48 51.48 0 0 1-8.42 24.9 29.3 29.3 0 0 1-8.22 8.37c-.58.38-1.21.7-1.86.98-.74.31-1.8-.5-1.7-1.32.12-.98.32-1.94.56-2.9 2.47-9.8 1.75-19.5-.93-29.15-.34-1.2-.82-2.4-1.47-3.46-1.02-1.67-2.93-2.25-4.8-1.7a3.78 3.78 0 0 0-2.72 3.82c0 1.54.2 3.08.49 4.6a66.51 66.51 0 0 1 1.24 15.51 31.4 31.4 0 0 1-3.1 12.6c-1.97 3.97-4.93 6.8-9.41 7.75-.55.11-1.11.21-1.66.22-1.6.04-2.82-.93-2.78-2.51.04-1.37.25-2.83.77-4.1a51.73 51.73 0 0 0 3.54-14.69c.63-6.57-.4-12.9-2.96-18.95a10.8 10.8 0 0 0-2.06-3.14c-1.4-1.5-3.3-1.59-5.1-.91a3.95 3.95 0 0 0-2.71 3.9c.05 1.52.34 3.06.7 4.54 3.43 14-.45 25.89-10.7 35.68-5.04 4.82-11.22 7.42-18.38 7.13-3.3-.14-6.3-1.27-9.15-2.9-1.93-1.1-2.66-2.72-2.57-4.9.07-1.76.72-3.28 1.45-4.8a98.35 98.35 0 0 0 5.92-15.33c2.05-7.06 3.22-14.25 2.83-21.63-.43-7.82-2.02-15.33-6.21-22.09a24.1 24.1 0 0 0-3.13-3.94 3.5 3.5 0 0 0-3.5-.97 3.58 3.58 0 0 0-2.82 3.7c.09 1.23.53 2.45.86 3.66 1.4 5 0 6.98-5.2 6.75-7-.31-13.02-3.18-18.14-7.94a17.81 17.81 0 0 1-5.07-7.64c-1.57-4.89-.11-8.9 4.23-11.61 3.02-1.89 6.06-2.53 9.6-1.25 5 1.8 10.25 1.69 15.44.93 3.7-.53 6.99-2.12 9.83-4.54 1.71-1.46 3.32-3.04 4.97-4.57 3.79-3.53 8.01-6.14 13.34-6.59 1.24-.1 2.51-.39 3.67-.84a4.2 4.2 0 0 0 2.78-4.3c-.06-2.07-1.2-3.36-3.07-4.12a9.77 9.77 0 0 0-5.4-.4c-1.93.32-3.85.78-5.75 1.28-2.95.8-4.44-1.49-3.7-3.8a12.95 12.95 0 0 1 2.23-4c1.77-2.23 4.15-3.76 6.66-5.08a42.4 42.4 0 0 1 13.21-4.16c3.05-.48 6.14-.67 8.35-.9M833 794.5c1.02-26.9 11.74-48.09 32.67-63.91 9.86-7.45 21.13-11.91 33.5-12.5 18.45-.86 33.85 5.72 45.25 20.58 6.45 8.4 10.26 17.97 11.89 28.46.65 4.2.76 8.39.87 12.6a24.8 24.8 0 0 1-2.61 11.8c-2.03 4.14-3.05 8.4-2.66 13.02a8.99 8.99 0 0 1-.71 4.1c-8.83 20.93-23.16 36.33-44.97 43.96a53.13 53.13 0 0 1-32.34 1.2c-12.3-3.4-21.8-10.78-29.17-21.02-5.6-7.79-8.9-16.55-10.43-25.97-.7-4.28-.92-8.64-1.3-12.31M653.92 1172.1c0 3.67-.12 7.33.03 10.98.32 8.28.46 16.6 1.26 24.84.6 6.13 1.88 12.23 3.31 18.24a147.97 147.97 0 0 0 8.99 26.3c4.17 9.3 9.84 17.68 15.6 26 .57.82 1.22 1.56 1.75 2.4 1.07 1.7.81 3.1-.61 4.5-1.88 1.87-6.53 2.52-8.8-.13a52.65 52.65 0 0 1-3.14-3.96 173.1 173.1 0 0 1-24.7-51.49c-1.3-4.5-1.54-9.13-2.18-13.71-.5-3.48-.8-6.98-1.03-10.48-.65-9.96-1.29-19.92-1.8-29.89-.6-11.24-1.49-22.43-4.2-33.41-3.05-12.27-7.47-23.9-15.33-33.96a100.6 100.6 0 0 0-8.58-9.84c-6.72-6.62-14.7-10.74-24.32-11.24-.98-.05-1.97-.09-2.94-.25-1.86-.32-2.7-2.36-1.52-3.84a6.08 6.08 0 0 1 1.95-1.56c9.3-4.8 18.7-5.65 28.26-.61 11.55 6.07 20.52 14.68 26.45 26.35 4.68 9.2 8.56 18.68 9.93 29a208.67 208.67 0 0 1 1.76 29.87c-.02 1.96 0 3.93 0 5.9zm404.62-32c-.93 18.13-3.92 34.47-12.3 49.44l-.4.75c-3 4.96-4.1 10.25-3.8 16.1a102.6 102.6 0 0 1-10.77 51.06c-9.1 18.44-22.64 32.8-41.47 41.6a66.97 66.97 0 0 1-43.23 4.93c-1.37-.28-2.8-.57-4.04-1.16a6.44 6.44 0 0 1-2.48-2.14c-.99-1.48-.12-3.2 1.62-3.46a14.7 14.7 0 0 1 2.53-.13c14.86.3 28.64-3.75 41.63-10.64 20.53-10.9 35.46-26.94 43.93-48.72a79.49 79.49 0 0 0 4.83-39.76c-.26-2.01-.08-3.88.67-5.77 1.9-4.84 3.69-9.72 5.6-14.56 5.93-15.07 7.69-30.74 6.77-46.78-.15-2.52-.7-5-1.1-7.5-.14-.84-.38-1.65-.52-2.48-.55-3.2.83-4.5 3.96-3.74a5.91 5.91 0 0 1 3.86 3.02c1.6 2.83 2.96 5.79 3.44 9.02.6 4.02.95 8.08 1.27 10.92"/><path fill="#f8f5e6" d="M618.77 1178.79a258.18 258.18 0 0 1-39.45-3.54c-2.49-.42-4.99-.83-7.47-1.3a17.4 17.4 0 0 1-3.27-.82c-2.63-1.06-4.47-2.85-4.97-5.79a135.82 135.82 0 0 1-2.1-26.86 5.89 5.89 0 0 1 1.69-4.19c1.07-1.09 2.3-1.59 3.8-1.08 1.07.35 2.13.73 3.2 1.11a107.75 107.75 0 0 0 28.34 6.2c5.32.43 10.64.87 15.96 1.36 5.66.51 10.07 2.94 13.07 8 3.66 6.18 4.86 12.81 4.45 19.85-.04.7-.16 1.4-.33 2.07-.9 3.77-2.2 4.8-6.18 4.97-.28.02-.56.02-.84.02h-5.9m-17.66 42.5c-3.93 0-7.91.38-11.8-.1-5.08-.62-9.3-3.03-11.5-8.07-3.26-7.48-5.9-15.2-8.54-22.9-1.68-4.89.58-6.13 4.95-5.19a269.56 269.56 0 0 0 18.28 3.18 190.95 190.95 0 0 0 31.96 2c.56 0 1.12-.03 1.68-.07 2.19-.16 3.79.83 5.03 2.54 1.68 2.3 2.9 4.89 3.37 7.66.53 3.17.67 6.42.81 9.65.06 1.24-.23 2.52-.55 3.73a6.26 6.26 0 0 1-5.2 4.9c-6.64 1.27-13.3 2.4-20.05 2.67-2.81.11-5.62.02-8.44.02v-.02M587 1096.82c8.42-.84 15.02 3 20.7 8.59a80.18 80.18 0 0 1 12.12 15.63c.93 1.53 1.67 3.3 1.99 5.05.65 3.6-1.69 6.36-5.3 6.64-.7.05-1.41.04-2.11 0-8.85-.49-17.68-1.11-26.44-2.54-6.55-1.06-12.87-2.96-19.13-5.1-3.46-1.2-4.94-3.47-4.4-7.13.77-5.19 2.4-10.2 5.3-14.56 2.72-4.07 7-6 11.8-6.55 1.8-.2 3.65-.03 5.48-.03m123.77-461.48 2.64.31c7.6.94 14.83-.37 21.68-3.75a32.27 32.27 0 0 1 14.18-3.4c15.31-.18 30.62-.64 45.92-1.04 2.55-.06 5.06.18 7.51.84 3.74 1.01 4.92 3.54 3.17 7.04a42.6 42.6 0 0 1-6.38 9.39c-2.35 2.63-5.41 3.98-8.74 4.75a8.92 8.92 0 0 1-3.32-.09c-5.96-.96-11.89-2.16-17.87-2.97a1213 1213 0 0 0-28.84-3.5c-9.37-1.05-18.79-.98-28.2-.81-2.19.03-4.19-.12-5.73-1.95-1.27-1.5-1-3.37.84-4.1 1.14-.46 2.43-.57 3.14-.72M605.72 1231.3c7.9.1 15.76-.42 23.54-1.75 3.28-.55 5.9.43 7.86 2.91a35 35 0 0 1 4.08 6.36c1.15 2.4 1.85 5 2.75 7.52.96 2.74.21 5.27-.99 7.73-.67 1.39-2.04 1.86-3.34 2.4a83.8 83.8 0 0 1-18.63 5.3c-2.35.36-4.74.58-7.11.84a6.83 6.83 0 0 1-4.77-1.29c-3.6-2.5-7.03-5.13-9.4-8.94-3.2-5.13-6.52-10.18-9.78-15.27-.38-.6-.69-1.23-1.06-1.82-1.46-2.34-.8-4.12 2.54-4.6.81-.12 1.67.06 2.52.1l11.8.51M412.84 697.04a13.65 13.65 0 0 1-5.5 10.43c-1.96 1.53-4.3 1.8-6.79.93a28.92 28.92 0 0 1-10.19-5.79 59 59 0 0 1-9.58-11.16c-2.71-4.11-3.97-8.68-4.35-13.5-.51-6.36 4.12-12.43 10.18-13.64a9.36 9.36 0 0 1 4.57.22c1.46.43 2.5 1.23 2.96 2.72.16.53.38 1.05.57 1.58a52.22 52.22 0 0 0 12.87 20.04c1 .98 1.98 2 3.05 2.92a6.19 6.19 0 0 1 2.21 5.25m.83-53.53c5.7.23 10.57 2.59 15.07 5.88a3.9 3.9 0 0 1 1.53 3.72c-.09.83-1.11 1.51-1.87 1.2-.5-.22-.98-.54-1.47-.8-.61-.34-1.2-.76-1.85-.98-.99-.33-1.96-.23-2.7.6-.63.71-.73 1.9-.15 2.76.56.8 1.22 1.54 1.88 2.27a34.5 34.5 0 0 1 5.76 8.27 38.04 38.04 0 0 1 1.64 4.32c1.72 5.23-.01 9.64-3.37 13.63-1.87 2.2-4.43 2.87-7.18 2.98a4.11 4.11 0 0 1-1.97-.6 7.53 7.53 0 0 1-1.61-1.35c-7.06-7.17-12.04-15.51-14.02-25.46-.66-3.33-.8-6.72.24-10.02 1.24-3.97 3.88-6.07 7.97-6.41.7-.06 1.4 0 2.1 0m558.84 36.98c.46.02.74.02 1.02.06 1.18.15 2.2.98 2.47 2a2.8 2.8 0 0 1-1.27 2.9c-.85.44-1.83.69-2.77.88-6.9 1.36-13.8 2.64-20.68 4.02-17.64 3.52-35.27 7-52.88 10.63-25.04 5.15-50.05 10.41-75.08 15.63l-13.6 2.85c-.7.15-1.38.35-2.07.42-1.78.18-2.94-.5-3.33-1.88-.4-1.42.58-2.73 2.49-3.29.4-.11.82-.16 1.24-.24 30.66-6.37 61.33-12.75 92-19.11 23.24-4.82 46.49-9.62 69.73-14.42.96-.2 1.93-.32 2.73-.45M367 687.85c.64 1.28 1.12 2.11 1.51 3 3.97 9 10.32 16 18.31 21.54 2.4 1.65 5.22 2.7 7.9 3.91 1.77.82 3.03 2.02 3.58 3.9.54 1.87.3 3.59-1.12 5.07-3.54 3.67-7.72 5.53-12.88 4.62-1.1-.2-2.21-.46-3.27-.84-5.07-1.8-9.82-4.22-13.9-7.74-7.53-6.49-9.73-14.81-7.96-24.35.61-3.31 2.5-5.92 5.2-7.91.64-.47 1.47-.69 2.63-1.2m630.04 441.74c-.04 4.73-1.24 9.5-3.09 14.11a44.26 44.26 0 0 1-9.99 15 31.94 31.94 0 0 1-18.6 9.11c-2.66.38-5.36.43-7.93-.45a7.9 7.9 0 0 1-3.17-1.92c-2.22-2.37-1.53-5.13 1.45-6.4a11.1 11.1 0 0 1 2.01-.62c3.7-.87 7.39-1.76 11.1-2.57a17.64 17.64 0 0 0 9.04-5.1c6.42-6.6 9.38-14.55 9.07-23.71-.14-4.24-1.65-8-4.51-11.1-2-2.16-4.24-4.1-6.4-6.1-.62-.57-1.35-1.01-2-1.54-.82-.67-1.32-1.48-.95-2.58.43-1.26 1.6-2.21 2.8-2.22.55 0 1.12.1 1.65.24 10.2 2.82 19.6 15.07 19.52 25.85m-338.72 165.73c-2.41-.53-5.46-1.04-8.4-1.89a62.6 62.6 0 0 1-19.13-9.49 149.33 149.33 0 0 1-9.27-7.24c-1.9-1.6-1.7-3.52.37-4.82a7.62 7.62 0 0 1 3.13-1.08 96.39 96.39 0 0 0 20.07-4.46 6.67 6.67 0 0 1 6 .79c2.05 1.26 3.93 2.69 5.28 4.72 2.02 3.03 4.03 6.07 5.99 9.14a16.94 16.94 0 0 1 2.56 7.06c.13 1.11.17 2.25.03 3.35-.28 2.17-1.34 3.24-3.47 3.63-.82.15-1.67.16-3.16.29m201.9-303.65c-9.55 0-19.1.08-28.66-.03-4.2-.05-8.4-.48-12.61-.75a6.4 6.4 0 0 1-1.25-.18 2.42 2.42 0 0 1-1.8-2.5c.05-1.2.87-2.03 2.18-2.08 1.12-.05 2.25.03 3.37.05 9.55.24 19.1.7 28.65.66 11.52-.05 23.04-.4 34.54-.84a757.5 757.5 0 0 0 27.77-1.66c11.47-.88 22.93-1.94 34.4-3.02 9.08-.85 18.15-1.83 27.23-2.79 2.65-.28 5.29-.69 7.94-1a7.89 7.89 0 0 1 2.06.06c.82.13 1.18 1.41.62 2.04a6.34 6.34 0 0 1-4.07 1.95c-3.34.48-6.65 1.1-10 1.55-10.85 1.41-21.7 2.9-32.58 4.11-7.95.88-15.94 1.46-23.92 2-12.05.8-24.11 1.5-36.17 2.13-5.89.3-11.8.33-17.7.48v-.18M814.35 884.9a7 7 0 0 1-5.18-1.9c-.83-.79-.6-1.99.53-2.3 1.22-.32 2.47-.57 3.72-.7 9.63-1.1 19.26-2.17 28.9-3.21 6.14-.67 12.3-1.27 18.44-1.94 6.56-.71 13.12-1.48 19.68-2.22 6-.67 12-1.32 18.01-2l18.84-2.18c6-.7 12-1.34 18-2.07 10.32-1.27 20.63-2.6 30.94-3.9 3.48-.43 6.97-.87 10.46-1.27a5 5 0 0 1 3.6.83c1.35.98 1.43 2.7-.06 3.42-1.24.6-2.64.92-4.01 1.12-2.36.35-4.75.5-7.12.75-6.29.67-12.57 1.35-18.86 2.05-6.28.7-12.56 1.43-18.84 2.12-6.29.7-12.57 1.36-18.86 2.05l-19.68 2.2c-5.86.67-11.73 1.32-17.59 2a8144.65 8144.65 0 0 0-35.57 4.21c-6 .73-12 1.47-17.99 2.18-2.37.28-4.75.49-7.36.75m-4.89-86.03 1.77 66.53c.05 1.82.19 3.65.16 5.47a2.67 2.67 0 0 1-1.45 2.41c-1.57.83-3.62.08-4.11-1.65-.3-1.06-.32-2.22-.34-3.33-.32-16.16-.62-32.31-.92-48.47-.3-16.29-.55-32.58-.9-48.87-.2-10.11-.52-20.22-.82-30.34-.08-2.52-.35-5.04-.39-7.57a14.6 14.6 0 0 1 .48-3.72 2.55 2.55 0 0 1 2.5-1.88c1.04.06 1.93.98 2.05 2.3.1 1.26.1 2.53.12 3.8.36 15.86.68 31.73 1.1 47.6.17 6.46.54 12.91.75 17.72m-83.84 419.97c-.35 2.1-.82 5.13-1.36 8.16a6.06 6.06 0 0 1-1.99 3.62c-1.63 1.41-3.67.96-4.37-1.07-.45-1.32-.69-2.72-.99-4.09-2.42-11.06-6.47-21.46-12.63-31a78.52 78.52 0 0 0-9.87-12.54c-1.2-1.23-2.2-2.53-2.5-4.28-.53-3.12 1.3-5.16 4.3-4.37 2.81.74 5.65 1.56 8.12 3.3a42.72 42.72 0 0 1 10.08 10.07c6 8.35 10 17.5 10.93 27.85.1 1.12.14 2.24.28 4.35m18.16-601.79c.33-.38.58-.97.98-1.08.8-.23 1.65-.26 2.49-.27 13.74-.2 27.05-2.86 40.1-7a102.4 102.4 0 0 0 15.14-6.32 27.11 27.11 0 0 1 5.5-2 7.85 7.85 0 0 1 3.31.12c1.35.27 2.31 1.19 2.32 2.63 0 2.38.13 4.8-.3 7.12-.8 4.3-4.6 8.51-10.55 8.38-18.4-.42-36.79-.5-55.18-.72-1.23-.02-2.55.28-3.8-.86M785.13 473c2.92.05 4.84 1.37 5.83 3.73 1.01 2.4.23 4.43-1.35 6.2-.83.92-1.93 1.62-2.97 2.35a45.2 45.2 0 0 0-8.68 7.95c-1.52 1.81-2.64 3.95-3.96 5.93-.84 1.29-1.54 2.73-2.62 3.77-1.99 1.91-4.42 2.44-7 1.2-2.54-1.2-3.74-3.31-3.61-6.12.04-.83.15-1.7.44-2.47 1.65-4.37 3.65-8.52 7-11.9 3.57-3.62 7.27-7.05 11.93-9.25 1.65-.78 3.34-1.5 4.99-1.38M648.9 493.03a6.05 6.05 0 0 1-6.33-5.96 8.9 8.9 0 0 1 .46-3.3c1.29-3.42 2.71-6.8 5.09-9.64a46.66 46.66 0 0 1 10.94-9.81 29.2 29.2 0 0 1 4.9-2.39 9.25 9.25 0 0 1 3.28-.59c2.47 0 4.3 1.18 5.34 3.43 1.06 2.28.57 4.43-1 6.28-.7.84-1.7 1.44-2.56 2.16-2.56 2.18-5.19 4.3-7.66 6.58-2.4 2.2-4.3 4.8-5.65 7.8a13.8 13.8 0 0 1-2.02 3.18 6.09 6.09 0 0 1-4.8 2.26m330.54 245.24.3 11.37.83 27.77c.03 1.26.07 2.53 0 3.79-.1 1.65-1.07 2.57-2.64 2.69-1.52.1-2.6-.82-2.73-2.5-.1-1.26-.07-2.53-.1-3.8-.3-14.3-.59-28.61-.93-42.92-.31-12.63-.7-25.25-1.04-37.87-.02-.7-.02-1.4.06-2.1.16-1.42.9-2.18 2.07-2.23 1.39-.06 2.51.73 2.77 2.05.15.82.17 1.68.19 2.52l.9 34.93c.04 2.1 0 4.2 0 6.3h.33M733 1159.93c-3.1.01-5.02-1.62-5.12-4.1-.06-1.36.14-2.8.59-4.1a29.43 29.43 0 0 1 2.44-5.34 792.08 792.08 0 0 1 9.58-15.83 12.79 12.79 0 0 1 2.67-3.2 4.22 4.22 0 0 1 5.11-.38 4.78 4.78 0 0 1 2.44 4.95 10.8 10.8 0 0 1-1.11 3.16c-3.7 6.77-7.42 13.52-11.21 20.23-.68 1.2-1.6 2.35-2.65 3.23-.92.76-2.18 1.11-2.75 1.38m205.74-22.23c-.38-.07-1.22-.16-2.02-.39a42.2 42.2 0 0 1-18.32-10.68c-.7-.67-1.3-1.47-1.78-2.32-1.12-2-.83-4.42.6-5.84 1.57-1.58 3.49-1.81 5.78-.65.74.38 1.46.84 2.13 1.34a55.58 55.58 0 0 0 14 7.58c1.04.38 2.07.88 3.02 1.46 2.67 1.65 3.7 4.01 2.87 6.33-.77 2.13-2.9 3.3-6.28 3.17M919.4 965.07c.1 2.53.23 5.06.32 7.59.03.84 0 1.69-.1 2.52-.12.9-.62 1.54-1.56 1.76-.72.17-1.38-.47-1.56-1.58-.1-.7-.16-1.4-.2-2.1-.32-5.47-.57-10.95-.98-16.41-1.48-19.82-4.68-39.33-10.73-58.31-.39-1.2-.76-2.42-1.01-3.65-.15-.7.06-1.5.85-1.72a2.46 2.46 0 0 1 1.58.15c1.54.7 2.22 2.12 2.63 3.63 1.23 4.47 2.54 8.93 3.56 13.44 3 13.32 5.14 26.77 6.17 40.39.35 4.76.73 9.52 1.1 14.29h-.08m-.13 43.53a416.38 416.38 0 0 1-4.58 47.35 278.63 278.63 0 0 1-5.97 28 25.14 25.14 0 0 1-1.45 3.92c-.32.7-1.08.84-1.82.65a1.45 1.45 0 0 1-1.14-1.56c.05-.83.23-1.66.45-2.47a281.54 281.54 0 0 0 7.69-37.09c1.24-8.9 2.08-17.85 2.87-26.8.55-6.15.69-12.33 1.06-18.5.08-1.4.29-2.8.6-4.16.1-.42.66-.94 1.1-1.05.85-.2 1.27.54 1.4 1.2.19.96.25 1.96.21 2.93-.1 2.53-.27 5.05-.42 7.57m80.9-352.21c3.56.6 7.38 1.54 10.85 3.38a47.86 47.86 0 0 1 6.58 4.45 9.3 9.3 0 0 1 2.36 2.9 3.7 3.7 0 0 1-.4 4.31c-1.09 1.35-2.57 1.62-4.17 1.19a6.1 6.1 0 0 1-1.88-.9c-4.04-2.84-8.55-4.7-13.2-6.29-.91-.31-1.84-.67-2.68-1.15-2.02-1.18-2.82-2.96-2.33-4.9.46-1.8 2.32-3.02 4.87-3m-17.65 187.16c0 2.95.02 5.9 0 8.86-.02 1.6-.92 2.6-2.41 3.08-1.63.53-3.15-.39-3.37-2.11a47.8 47.8 0 0 1-.33-4.63 1135 1135 0 0 1-.26-13.07c-.02-1.12 0-2.26.2-3.36.18-.97.68-1.85 1.79-2.14 1.2-.31 2.75.17 3.27 1.3.47.99.75 2.13.79 3.22.1 2.95.03 5.9.03 8.85zm-49.07 152.15c1.5 0 2.63-.2 3.67.03 3.64.78 7.27.9 10.84-.12 3.21-.92 5.42.5 7.32 2.8.22.26.15.76.25 1.38a48.11 48.11 0 0 1-14.64.59 13.21 13.21 0 0 1-6.5-2.66c-.44-.32-.53-1.1-.94-2.02m-65.26 7.89c-.75 1.36-1.85 1.61-2.99 1.54-2.5-.16-5.01-.32-7.5-.7a41.94 41.94 0 0 1-11.89-3.9 5.5 5.5 0 0 1-1.63-1.25c-.16-.17-.02-.97.18-1.06.74-.33 1.6-.77 2.33-.67 1.5.22 3 .64 4.42 1.2 4.06 1.6 8.2 2.77 12.6 2.8 1.1.01 2.22.29 3.24.68.53.2.87.93 1.24 1.36m115.08-4.3a25 25 0 0 1-13.53-5.6c-.33-.26-.5-1.01-.4-1.46.18-.82 1-1.01 1.67-.84.93.24 1.84.63 2.66 1.13 2.43 1.5 4.97 2.46 7.88 2.28a6.7 6.7 0 0 1 2.47.34c.62.2 1.23.64 1.68 1.12.9 1 .29 2.71-1.01 2.94-.55.09-1.11.07-1.42.09m-99.72.07c.45-.5.79-1.22 1.32-1.4a7.7 7.7 0 0 1 2.83-.35c2.78.15 5.56.35 8.33.64 1.65.17 3.3.48 4.91.85.44.1.77.66 1.46 1.3-.81.32-1.25.64-1.71.66-3.9.16-7.8.32-11.71.36-1.93.01-3.93-.07-5.43-2.06"/><path fill="#050705" d="M602.5 380c-.05 7.27-1.37 14.24-4.54 20.84a15.1 15.1 0 0 0-1.12 4 5.48 5.48 0 0 0 1.14 4.35c5.87 7.81 6.53 16.6 4.22 25.69a41.06 41.06 0 0 1-17.36 24.57c-5.1 3.45-10.75 5.48-16.99 5.56-4.09.05-3.95-.07-6.3 3.7-4.4 7.1-5.57 14.93-5.26 23.07a54.82 54.82 0 0 0 3.4 16.45c1.29 3.57 2.59 7.13 3.9 10.7 3.45 9.3 2.98 18.74.89 28.22-.75 3.43-2.37 6.3-5.58 8.05-.36.2-.67.5-1.01.75-4.11 3.04-8.36 2.83-12.2-.64-2.85-2.6-4.15-5.95-4.48-9.71-.1-1.26-.05-2.53-.06-3.8a33.54 33.54 0 0 0-4.33-16.54c-2.34-4.15-4.9-8.2-7.58-12.15-3-4.43-5.68-9.02-7.94-13.88a50.92 50.92 0 0 1-4.55-17.02c-.54-5.98.62-11.75 2.61-17.37.47-1.31 1.12-2.65 1.2-4a9.08 9.08 0 0 0-3.6-8.09c-6.8-5.46-11.82-12.37-15.44-20.28a39.73 39.73 0 0 1-3.53-12.08 15.06 15.06 0 0 0-4.26-8.94c-11.18-11.72-15.47-25.88-14.16-41.77.68-8.24 3.34-15.95 8.38-22.66 11.19-14.9 29.3-19.34 46.21-10.91 1.63.8 3.16 1.84 4.72 2.78 4.5 2.68 9.18 3.32 14.12 1.31 15.57-6.33 32.79.68 41.8 13.95a45.4 45.4 0 0 1 7.7 25.85"/><path fill="#fff" d="M525.87 478.5c.2-5.08.61-8.55 1.78-11.91 1.44-4.16 3.65-5.88 8.03-6.08 1.56-.08 3.09-.2 4.48-.98 1.8-1 2.54-2.56 2.38-4.57a4.34 4.34 0 0 0-3.32-3.91 9.55 9.55 0 0 0-2.5-.27c-3.19 0-6.06-1.06-8.81-2.54a34.75 34.75 0 0 1-9.16-7.37 45.8 45.8 0 0 1-8.04-12.31c-.4-.9-.79-1.81-1-2.77a2.12 2.12 0 0 1 2.36-2.64c.97.13 1.91.48 2.88.6 1.95.25 3.9.54 5.85.57 1.09.02 2.24-.3 3.25-.72a5.28 5.28 0 0 0 3.53-4.83 5.1 5.1 0 0 0-2.81-4.86 14.07 14.07 0 0 0-4.3-1.64c-11.64-2-19.45-9-24.79-19.07-5-9.44-6.52-19.42-3.16-29.77 2.47-7.64 6.94-13.8 14.36-17.39 6.96-3.36 14.07-3.48 21.28-.78a34.22 34.22 0 0 1 14 9.85 45.72 45.72 0 0 1 7.57 12.1c.55 1.3 1.04 2.63 1.69 3.87 1.07 2.05 2.75 2.87 4.44 2.31 1.66-.54 2.67-2.19 2.37-4.43a35.87 35.87 0 0 0-1.33-5.73 53.99 53.99 0 0 0-2.09-5.52c-.64-1.48-.32-2.72.64-3.9a8.91 8.91 0 0 1 5.18-3.35c5.8-1.28 11.17-.23 16.2 2.79 5.37 3.23 9.1 7.93 11.55 13.6 4.16 9.62 4.41 19.43.52 29.15-3.17 7.91-9.03 13.43-16.7 17.06-1.27.6-2.61 1.08-3.8 1.8-1.86 1.16-2.62 2.92-2.13 4.64.52 1.8 1.84 2.76 3.63 3.13 2.27.48 4.49.16 6.65-.55a25.44 25.44 0 0 0 7.75-4.2c.77-.6 1.5-1.27 2.34-1.8 1.95-1.22 3.88-.8 5.05 1.19a16.6 16.6 0 0 1 2.2 9.32c-.7 15.86-13.78 26.87-24.35 28.87-6.24 1.18-14.34-.87-17.2-9.97-.21-.67-.37-1.36-.66-2-1.09-2.44-3.11-3.46-5.43-2.79-2.02.6-3.14 2.44-2.84 5.04.14 1.24.44 2.52.97 3.64 1.06 2.28 2.09 4.65 3.57 6.65 2.97 4.04 2.9 8.33 1.67 12.82-.86 3.1-2.07 6.13-2.72 9.28-2.1 10.16-1.03 20.16 2.16 29.94a141.3 141.3 0 0 0 5.1 13.39c2.86 6.38 3.32 13.03 2.77 19.82a11.11 11.11 0 0 1-1.47 4.33c-1.04 1.86-3.94 1.57-4.75-.45a9.54 9.54 0 0 1-.58-3.28c-.17-8.2-2.65-15.78-6.45-22.93a150.36 150.36 0 0 0-7.03-11.5 87.82 87.82 0 0 1-7.5-13.66 39.9 39.9 0 0 1-3.28-15.3"/><path fill="#050705" d="M901.84 727.1c15.87.16 28.07 7.23 37.4 19.65 5.5 7.34 8.42 15.73 9.97 24.76 3.42 19.87-5.72 49-27.17 64.56-7.64 5.55-16 9.6-25.38 10.67-18.09 2.07-33-4.03-43.72-18.94-8.64-12.03-11.67-25.66-10.07-40.36 1.9-17.5 9.49-32.2 21.89-44.47a53.56 53.56 0 0 1 28.3-14.9c2.89-.53 5.85-.66 8.78-.97"/><path fill="#2e2e28" d="M944.6 781.07c-.5 21.61-9.3 39.05-26.55 52.11a46.11 46.11 0 0 1-27.44 9.5 38.62 38.62 0 0 1-28.64-11.23c-7.34-7.1-11.56-15.86-13.3-25.8a64.33 64.33 0 0 1 7.86-44.34c7.5-13.03 18.38-22.29 32.82-26.91 12.65-4.05 24.7-2.54 35.93 4.74 5.3 3.44 9.29 8.1 12.4 13.56 5 8.8 7.03 18.3 6.91 28.37"/><path fill="#050705" d="M878.24 793.47c-.03-8.38 1.76-15.36 6.06-21.57 4.14-5.99 9.56-10.13 16.88-11.63 5.37-1.1 10.34-.17 15.05 2.36 7.13 3.81 11.22 10 13.31 17.62a32.16 32.16 0 0 1 .34 15.01 46.18 46.18 0 0 1-3.7 11.16 28.32 28.32 0 0 1-11.87 12.74c-11.1 6.19-23.12 2.85-30.02-6.4a29.56 29.56 0 0 1-5.85-15.55c-.13-1.54-.17-3.08-.2-3.74"/><path fill="#2e2e28" d="M924.94 790.28c.07 8.18-3.08 15-8.83 20.68a20 20 0 0 1-7.8 4.86c-6.3 2.1-11.9.72-16.81-3.6-3.93-3.48-6.23-7.95-7.3-13-2.02-9.54.3-18.1 6.3-25.67a21.6 21.6 0 0 1 11.3-7.65c5.79-1.61 10.83-.15 15.21 3.76 3 2.68 5 6.05 6.22 9.86a35.05 35.05 0 0 1 1.71 10.76"/><path fill="#050705" d="M690.5 937.58c-.3 1.46-.36 2.47-.7 3.38a4.64 4.64 0 0 1-6.62 2.38 7.26 7.26 0 0 1-3.29-3.72c-1.03-2.46-2.09-4.92-2.86-7.46a313.84 313.84 0 0 1-10.37-45.54c-.68-4.58-1.53-9.14-2.16-13.73-.3-2.22-.43-4.48-.38-6.72a4.47 4.47 0 0 1 3.42-4.28 4.65 4.65 0 0 1 5.28 2.52c.55 1.11.88 2.36 1.14 3.59 1.54 7.28 3.06 14.56 4.52 21.86 2.7 13.5 6.29 26.78 10.19 39.98.8 2.67 1.3 5.44 1.83 7.74M860.88 669.6c.75-12.17 5.27-22.58 14.63-30.63 2.8-2.4 5.92-4.33 9.5-5.3a16.7 16.7 0 0 1 4.55-.57c2 .04 3.42 1.28 4.2 3.06a4.6 4.6 0 0 1-.74 5.13 8.59 8.59 0 0 1-2.6 2.09c-10.1 4.94-14.9 13.66-17.28 24.12-.37 1.64-.6 3.31-.98 4.96-.22.95-.48 1.92-.93 2.77a5.48 5.48 0 0 1-6.03 2.85 5.7 5.7 0 0 1-4.29-4.69c-.16-1.25-.03-2.52-.03-3.79m-143.66-9.72c5.48-.2 10.93.1 16.35 1a41.2 41.2 0 0 1 11.98 3.8c1.22.61 2.4 1.48 3.32 2.49 1.42 1.57.74 3.58-1.28 4.37-1.48.57-3 .5-4.56.32-4.18-.45-8.36-.95-12.55-1.22a108.4 108.4 0 0 0-21 .67c-1.66.22-3.35.33-5.03.34-1.1 0-2.25-.14-3.3-.49a4.74 4.74 0 0 1-3.43-3.89 4.82 4.82 0 0 1 2.23-5.08c.92-.6 1.99-1.1 3.05-1.33a41 41 0 0 1 6.23-.94c2.65-.16 5.32-.04 7.99-.04m-15.15 316.31c-.1 2.04-.45 3.22-1.7 3.92-1.3.72-3.17.56-4.3-.5-.8-.77-1.54-1.65-2.11-2.6a50.45 50.45 0 0 1-5.78-14.37 5.58 5.58 0 0 1-.2-1.66c.12-1.65.87-2.94 2.46-3.6 1.39-.58 2.92-.08 4.04 1.41.59.77 1.04 1.66 1.45 2.55 1.64 3.56 3.3 7.11 4.84 10.72.65 1.53 1 3.18 1.3 4.13m60.88-536.28c.18-3.87.95-6.83 2.3-9.65a7.26 7.26 0 0 1 3.17-3.28c1.72-.94 3.49-1.13 5.2-.05 1.85 1.16 2.55 2.95 2.22 5.08-.17 1.1-.63 2.16-.78 3.26-.4 3 1.51 4.52 4.4 3.5 1.05-.37 2.03-.96 3.05-1.43 8.94-4.13 18.07-7.7 27.73-9.82 4.83-1.06 9.68-1.72 14.62-1.29 7.23.63 13.19 3.73 17.66 9.46a14.23 14.23 0 0 1 2.14 4.06 3.94 3.94 0 0 1-1.5 4.48c-1.43 1-2.94.93-4.36.07a23.01 23.01 0 0 1-3-2.3c-5.14-4.4-10.94-5.8-17.66-4.63-11.32 1.96-21.88 6.04-32.21 10.86-2.29 1.06-4.56 2.16-6.86 3.23-7.45 3.46-13.64-1.64-15.25-7.32-.46-1.6-.68-3.28-.87-4.23m175.9-11.7c0 2.25.1 4.5-.04 6.74a10.82 10.82 0 0 1-.92 3.64c-.86 1.93-2.76 2.8-4.88 2.48a4.48 4.48 0 0 1-3.72-3.54c-.22-1.1-.25-2.23-.29-3.35-.47-13.25-3.85-25.79-9.32-37.77-1.7-3.7-3.88-7.16-5.76-10.77a20.08 20.08 0 0 1-1.75-4.25c-.51-2.01-.17-3.95 1.68-5.27 1.7-1.2 4.36-.96 6.26.62.96.8 1.8 1.77 2.61 2.74 2.82 3.36 4.94 7.16 6.88 11.07 4.65 9.4 7.47 19.36 9.1 29.67.4 2.63.32 5.33.47 8h-.32m99.92 652.62c-.93-.05-1.79-.01-2.61-.14a3.69 3.69 0 0 1-3.16-2.97c-.27-1.67.16-3.23 1.69-3.99a22.7 22.7 0 0 1 5.14-1.76c3.14-.7 6.35-1.17 9.51-1.8 1.93-.38 3.82-.96 5.75-1.3 5.72-1.05 9-4.93 11.22-9.86 1.49-3.32 2.54-6.84 3.82-10.25.49-1.32.95-2.66 1.63-3.88 1.04-1.84 2.84-2.5 4.64-1.91 1.69.56 2.65 1.85 2.61 3.87a12.12 12.12 0 0 1-.55 3.72 963.04 963.04 0 0 1-6.56 18.22c-.98 2.62-2.94 4.42-5.42 5.66-.63.3-1.25.65-1.91.88-8.38 3-17.07 4.58-25.8 5.5M928.34 1191c3.18.13 6.32.79 9.22 2.37a7.11 7.11 0 0 1 3.26 3.19c1.18 2.55-.14 5.37-2.91 5.8-1.21.2-2.57.15-3.75-.2-5.27-1.59-9.98-.19-14.51 2.45a19.67 19.67 0 0 0-9.14 11.67c-.65 2.15-1.02 4.38-1.61 6.55-.4 1.48-.81 3.01-1.52 4.36-1.2 2.27-3.45 3.32-5.62 2.77a4.88 4.88 0 0 1-3.89-4.47c-.2-1.94-.2-3.94 0-5.88 1.72-16.42 13.74-26.57 28.68-28.52.56-.07 1.13-.06 1.78-.09m103.94-377.5c-.35-3.76-.49-7.56-1.11-11.27-.44-2.6-1.56-5.07-2.34-7.6-.36-1.2-.85-2.4-.87-3.62a3.17 3.17 0 0 1 4.45-2.9 8 8 0 0 1 2.84 2.36 23.24 23.24 0 0 1 3.65 7.52 68.24 68.24 0 0 1 2.75 18.22 19.7 19.7 0 0 1-.48 4.59c-.52 2.4-2.27 3.91-4.27 3.97-2.18.05-4.16-1.66-4.66-4.11-.16-.82-.17-1.67-.18-2.51-.03-1.54-.01-3.08-.01-4.63.07 0 .15 0 .23-.02m21.25-.44c-.25-2.08-.32-4.2-.79-6.22-1.11-4.77-2.41-9.48-3.64-14.22-.18-.67-.45-1.33-.59-2.01a4.24 4.24 0 0 1 2.23-4.56c1.5-.68 3.5-.34 4.6 1a14.2 14.2 0 0 1 1.94 3.22 69.94 69.94 0 0 1 5.39 20.2c.28 2.41-.31 4.73-1.12 6.98a6.55 6.55 0 0 1-1.04 1.8 3.94 3.94 0 0 1-4.5 1.44 3.85 3.85 0 0 1-2.7-3.42c-.14-1.38-.03-2.79-.03-4.19l.25-.02m-89.21 32.14a4.7 4.7 0 0 1-4.79 4.79 4.92 4.92 0 0 1-4.7-4.55 4.73 4.73 0 0 1 4.68-4.91c2.84-.05 4.8 1.86 4.81 4.67M825.2 745.43c-.07-2.54 1.53-4.33 3.97-4.45 2.5-.12 4.35 1.48 4.51 3.9a4.39 4.39 0 0 1-4.18 4.79 4.33 4.33 0 0 1-4.3-4.24m112.21-37.5c0 2.53-1.66 4.2-4.18 4.2-2.52.01-4.2-1.66-4.21-4.18 0-2.52 1.67-4.2 4.19-4.2 2.51-.01 4.2 1.67 4.2 4.18M818.58 730.3a4.25 4.25 0 0 1 4.24-4.26c2.28.05 4.07 2.08 3.98 4.48a4.2 4.2 0 0 1-3.99 4.05 4.24 4.24 0 0 1-4.23-4.27m141.91-28.96a4.18 4.18 0 0 1 4.38 4.1 4.2 4.2 0 0 1-4.04 4.03c-2.4.08-4.4-1.8-4.38-4.1a4.17 4.17 0 0 1 4.04-4.03m-15.06 20.13c-2.32-.06-3.84-1.68-3.8-4.03.03-2.2 1.77-4 3.9-4.03 2.13-.03 4.31 2.27 4.14 4.36a4.06 4.06 0 0 1-4.24 3.7M821.86 861.6a3.81 3.81 0 0 1 3.93-3.92 3.8 3.8 0 0 1 3.56 3.86 3.77 3.77 0 0 1-3.5 3.9 3.78 3.78 0 0 1-3.99-3.84m118.54-15.27c2.19.02 3.68 1.53 3.65 3.69a3.64 3.64 0 0 1-3.69 3.7 3.64 3.64 0 0 1-3.64-3.74c0-2.18 1.5-3.66 3.69-3.65m-100.03 3.02a3.93 3.93 0 0 1 3.62 3.83c-.05 1.92-1.93 3.75-3.79 3.67-1.88-.08-3.71-2-3.66-3.84.06-1.88 1.96-3.7 3.83-3.66m-2.54-122.43a3.52 3.52 0 0 1 3.78-3.54 3.8 3.8 0 0 1 3.49 3.53c.1 1.97-1.6 3.67-3.68 3.7-2.18.03-3.62-1.45-3.59-3.69m122.48 4.61c-1.85 0-3.22-1.28-3.26-3.07a3.3 3.3 0 0 1 3.43-3.39c1.79.1 3.04 1.5 3 3.34-.04 1.9-1.27 3.1-3.17 3.12M829.66 836.98c.03 1.45-1.21 2.59-2.75 2.52-1.42-.07-2.36-1.02-2.37-2.41-.03-1.54 1.1-2.6 2.7-2.52a2.54 2.54 0 0 1 2.42 2.41M561.85 598.16c-.55 2.45-1.05 4.9-1.67 7.33a5.68 5.68 0 0 1-2.42 3.35c-1.38.91-2.85 1.13-4.35.22-1.5-.91-2.4-2.62-2.05-4.27a10 10 0 0 1 1.03-2.74c1.4-2.5 2.25-5.08 2.24-8-.02-1.97.77-3 2-3.28 1.45-.34 2.89.4 3.76 2.05a14.23 14.23 0 0 1 1.46 5.34M497.8 375.27c.18-6.62 2.18-12.4 7.17-16.93a16.28 16.28 0 0 1 6.12-3.57c1.18-.37 2.48-.46 3.72-.43 1.37.04 2.35.89 2.8 2.2a2.93 2.93 0 0 1-1.02 3.39 14.4 14.4 0 0 1-2.5 1.52c-4.87 2.49-7 6.66-7.28 11.91-.1 2.1.08 4.2.12 6.3.02.97.1 1.97 0 2.93a4 4 0 0 1-3.07 3.57 4.1 4.1 0 0 1-4.52-2.28 9.5 9.5 0 0 1-.87-2.79c-.3-1.93-.45-3.88-.67-5.82m4.52 391.41c7.67-.3 13.88 6.17 13.98 13.73.1 7.16-5.76 14.02-13.68 14.05-9.28.03-14.1-8.12-14.05-14.22.07-6.48 6-14.02 13.75-13.56"/></svg>